<?xml version="1.0" encoding="UTF-8"?>
<svg id="Laag_1" data-name="Laag 1" xmlns="http://www.w3.org/2000/svg" viewBox="0 0 309.3 500.61">
  <defs>
    <style>
      .cls-1 {
        stroke-width: 1.49px;
      }

      .cls-1, .cls-2 {
        fill: none;
        stroke: #fff;
        stroke-miterlimit: 10;
      }

      .cls-3 {
        fill: #015d6f;
      }

      .cls-2 {
        stroke-width: 1.61px;
      }
    </style>
  </defs>
  <g>
    <path class="cls-3" d="m77.05,312.68s1.82-8.19-9.8-26.94c-.6-.51-1.62-1.31-2.99-2.09-8.85-5.03-19.51-1.92-26.74.19-3.08.9-7.53,2.44-12.63,5.11.97,3.99,1.86,8.39,2.54,13.16.82,5.7,1.21,10.98,1.34,15.74.81-.52,2-1.25,3.48-2.03,2.52-1.33,10.58-5.26,22.37-5.52,14.24-.3,22.44,2.37,22.44,2.37Z"/>
    <path class="cls-3" d="m112.8,201.31s-6.86-8.47-28.68-9.56c-.55.64-1.34,1.6-2.18,2.84-4.53,6.66-5.22,13.32-5.75,17.7-2.01,16.68-5.01,27.91-4,28.14.44.1.67-2.08,2.75-4.2,3.38-3.42,8.48-3.46,9.99-3.47,6.13-.05,10.68,3.06,14.71,5.82,5.91,4.04,9.45,8.47,9.94,8.05.32-.27-1.01-2.22-1.73-3.43-4.5-7.64-2.7-16.98-1.69-22.2,2.47-12.81,6.63-19.69,6.63-19.69Z"/>
    <path class="cls-3" d="m176.14,157.52l-33.62-7.29c-.28-.62-.69-1.52-1.21-2.59-1.04-2.11-4.58-9.07-13.5-19.51-2.51-2.94-5.89-6.67-10.14-10.77,4.04,1.42,8.55,2.8,13.51,3.98,5.54,1.32,10.7,2.19,15.36,2.75l3.15,3.62,26.46,29.81Z"/>
    <path class="cls-3" d="m221.88,448c-1.86.15-4.76.29-8.28.03-8.99-.65-15.68-3.39-23.35-6.6-3.43-1.44-8.16-3.58-13.63-6.63l-8.44,34.16c.67.1,1.68.28,2.87.58,6.28,1.58,8.95,4.41,13.03,6.57,4.71,2.48,5.46,1,15.13,3.55,5.69,1.5,10.12,3.25,12.81,4.41l9.84-36.07Z"/>
    <path class="cls-3" d="m198.19,371.43s-2.97-11.98-8.8-18.79c-.51.21-1.24.53-2.1.98-8.82,4.66-12.29,13.48-12.95,15.27-2.67,7.23-1.7,13.5-1.39,15.22,1.94,10.72,9.46,16.78,11.47,18.31-.26-1.69-.54-4.33-.39-7.57.2-4.29.67-14.51,7.33-19.62,3.41-2.62,6.83-3.79,6.83-3.79Z"/>
    <path class="cls-3" d="m173.79,331.11l1.98-5.28c.12-1.82.43-4.57,1.39-7.75.33-1.11,1.37-4.35,6.58-13.02,1.12-1.86,2.69-4.41,4.68-7.4l19.91,14.62c-.61.19-1.48.51-2.44,1.05-1.62.92-4.94,3.31-7.98,13.49-1.12,3.76-2.34,9.05-2.74,15.58l-21.38-11.28Z"/>
    <path class="cls-3" d="m75.07,409.32s1.28-8.18,2.41-20.85c.7-7.9.02-14.63-.81-19.5,2.36-.96,5.82-2.47,9.86-4.62,7.4-3.95,8.36-5.6,12.24-7.43,9.38-4.44,19.26-2.09,23.19-1.16,4.59,1.09,12.46,2.96,17.91,9.95,1.68,2.16,2.69,4.23,3.29,5.7l-7.38,44.44c-2.5-2.57-6.23-5.94-11.32-9.03-3.23-1.96-10.45-6.35-18.29-7.15-16.32-1.65-31.08,9.63-31.08,9.63Z"/>
    <path class="cls-3" d="m238.79,226.79s-19.54-7.7-68.1,13.32c1.23,4.48,2.33,9.36,3.18,14.64,2.06,12.75,2.08,24.16,1.34,33.56l66.89-7.67c-.25-2.78-.63-7.31-.95-12.88-1.69-29.36-2.36-40.97-2.36-40.97Z"/>
    <path class="cls-3" d="m265.2,167.11s-11.44,6.48-20.32,38.39c2.66,1.16,5.47,2.55,8.38,4.22,7.01,4.02,12.58,8.5,16.86,12.55l22.59-35.57c-1.45-.97-3.8-2.57-6.64-4.61-14.95-10.73-20.87-14.97-20.87-14.97Z"/>
    <path class="cls-3" d="m248.47,153.63s-7.86-8.09-39.45-12.31c-.71,2.09-1.6,4.31-2.75,6.62-2.76,5.58-6.18,10.11-9.39,13.63l37.12,14.23c.71-1.17,1.87-3.06,3.38-5.34,7.95-12.06,11.09-16.83,11.09-16.83Z"/>
    <path class="cls-3" d="m134.28,332.05s-6.12-3.02-15.81-7.04c-6.04-2.5-11.5-3.63-15.54-4.17-.17-2.09-.5-5.19-1.2-8.89-1.28-6.8-2.34-7.96-2.82-11.46-1.17-8.48,3.11-15.67,4.81-18.53,1.99-3.34,5.41-9.07,12.24-11.63,2.11-.79,3.99-1.07,5.3-1.18l33.14,16.77c-2.64,1.33-6.21,3.44-9.9,6.67-2.34,2.06-7.57,6.65-10.14,12.63-5.33,12.43-.1,26.83-.1,26.83Z"/>
  </g>
  <path class="cls-1" d="m221.32,269.45c-.11-4.87-.51-10.4-1.43-16.44-.93-6.12-2.22-11.59-3.6-16.32"/>
  <path class="cls-1" d="m213.99,270.51c-.11-4.87-.51-10.4-1.43-16.44-.93-6.12-2.22-11.59-3.6-16.32"/>
  <path class="cls-1" d="m206.51,272.8c-.11-4.87-.51-10.4-1.43-16.44-.93-6.12-2.22-11.59-3.6-16.32"/>
  <path class="cls-1" d="m200.14,275.51c-.11-4.87-.51-10.4-1.43-16.44-.93-6.12-2.22-11.59-3.6-16.32"/>
  <path class="cls-2" d="m226.99,268.69c.28-4.83.21-10.8-.8-17.54-.82-5.49-2.09-10.27-3.41-14.23"/>
  <path class="cls-1" d="m194.05,275.88c-.11-4.87-.51-10.4-1.43-16.44-.93-6.12-2.22-11.59-3.6-16.32"/>
  <path class="cls-1" d="m187.2,277.43c-.11-4.87-.51-10.4-1.43-16.44-.93-6.12-2.22-11.59-3.6-16.32"/>
  <path class="cls-1" d="m83.02,399.81c1.24-3.03,3.19-8.99,2.43-16.52-.53-5.25-2.18-9.35-3.48-11.95"/>
  <path class="cls-1" d="m92.82,396.01c.91-2.83,2.13-7.92,1.43-14.26-.66-5.92-2.71-10.37-4.13-12.91"/>
  <path class="cls-1" d="m102.7,394.5c.93-3.02,2.18-8.46,1.32-15.2-.95-7.47-4.02-12.83-5.82-15.51"/>
  <path class="cls-1" d="m112.81,394.61c1.2-2.05,4.37-8.12,3.5-16.23-1.06-9.82-7.32-15.69-8.88-17.07"/>
  <path class="cls-3" d="m264.44,46.32s-7.91-14.92-40.74-23.08c-1.03.8-2.51,2.03-4.16,3.66-8.88,8.77-11.9,18.68-14.01,25.19-8.02,24.75-15.94,40.93-14.48,41.57.63.28,1.63-2.97,5.44-5.55,6.16-4.19,13.92-2.73,16.22-2.29,9.33,1.76,15.31,7.84,20.62,13.23,7.78,7.91,11.83,15.69,12.71,15.2.56-.32-.88-3.67-1.6-5.72-4.56-12.95.97-26.62,4.06-34.25,7.58-18.74,15.95-27.94,15.95-27.94Z"/>
</svg>