<?xml version="1.0" encoding="UTF-8" standalone="no"?>
<!-- Created with Inkscape (http://www.inkscape.org/) -->

<svg
   width="41.804161mm"
   height="26.690674mm"
   viewBox="0 0 41.804161 26.690674"
   version="1.1"
   id="svg5"
   xmlns="http://www.w3.org/2000/svg"
   xmlns:svg="http://www.w3.org/2000/svg">
  <defs
     id="defs2" />
  <g
     id="layer1"
     transform="translate(-97.158939,-155.65271)">
    <path
       d="m 115.51826,181.77573 c 0.20892,-0.32742 0.63827,-1.48828 0.95411,-2.57968 1.23133,-4.25499 3.34411,-8.45453 5.60537,-11.14172 3.23683,-3.84654 8.63153,-6.04816 14.83484,-6.0542 l 2.05052,-0.002 v -0.79375 -0.79375 h -2.2143 c -4.25244,0 -8.79283,1.15901 -11.66945,2.97882 -2.70687,1.71243 -5.34643,4.59437 -7.03643,7.68255 l -0.69428,1.26867 -0.16366,-2.4915 c -0.46094,-7.01736 -4.05442,-11.05366 -11.69166,-13.13245 -1.38824,-0.37787 -6.079761,-1.05757 -7.342191,-1.06374 -0.914509,-0.005 -0.99219,0.0539 -0.99219,0.74577 v 0.75061 l 2.890851,0.31353 c 11.68082,1.26691 16.48064,6.16523 15.37345,15.68897 -0.16488,1.41823 -0.59133,3.78266 -0.94766,5.2543 -0.76683,3.1669 -0.75747,3.02376 -0.23212,3.54912 0.56137,0.56137 0.8258,0.52413 1.27479,-0.17954 z"
       style="fill:#000000;stroke-width:0.0700042"
       id="path1970" />
  </g>
</svg>
