<svg xmlns="http://www.w3.org/2000/svg" viewBox="0 0 1100 610" width="1100" height="610" style="width: 100%; height: 100%; transform: translate3d(0px, 0px, 0px);" preserveAspectRatio="xMidYMid meet"><defs><clipPath id="__lottie_element_2"><rect width="1100" height="610" x="0" y="0"></rect></clipPath></defs><g clip-path="url(#__lottie_element_2)"><g style="display: block;" transform="matrix(0.7900000214576721,0,0,0.7900000214576721,562.4661865234375,72.65546417236328)" opacity="1"><g opacity="1" transform="matrix(1,0,0,1,294.1059875488281,294.10699462890625)"><path fill="rgb(227,34,33)" fill-opacity="1" d=" M0.0010000000474974513,-293.85699462890625 C162.29299926757812,-293.85699462890625 293.8559875488281,-162.29299926757812 293.8559875488281,0 C293.8559875488281,162.29299926757812 162.29299926757812,293.85699462890625 0.0010000000474974513,293.85699462890625 C-162.29200744628906,293.85699462890625 -293.8559875488281,162.29299926757812 -293.8559875488281,0 C-293.8559875488281,-162.29299926757812 -162.29200744628906,-293.85699462890625 0.0010000000474974513,-293.85699462890625z"></path></g></g><g style="display: block;" transform="matrix(0.7900000214576721,0,0,0.7900000214576721,634.8681030273438,330.9388427734375)" opacity="1"><g opacity="1" transform="matrix(1,0,0,1,11.079000473022461,34.41999816894531)"><path fill="rgb(245,220,230)" fill-opacity="1" d=" M-10.829000473022461,33.43000030517578 C-10.829000473022461,33.43000030517578 -10.829000473022461,32.691001892089844 -10.829000473022461,32.691001892089844 C-10.829000473022461,32.691001892089844 -10.09000015258789,32.691001892089844 -10.09000015258789,32.691001892089844 C-5.178999900817871,32.691001892089844 -3.0940001010894775,30.270000457763672 -3.0940001010894775,20.649999618530273 C-3.0940001010894775,20.649999618530273 -3.0940001010894775,-8.743000030517578 -3.0940001010894775,-8.743000030517578 C-3.0940001010894775,-8.743000030517578 -6.927999973297119,-12.039999961853027 -6.927999973297119,-12.039999961853027 C-6.927999973297119,-12.039999961853027 10.357000350952148,-18.024999618530273 10.357000350952148,-18.024999618530273 C10.357000350952148,-18.024999618530273 10.357000350952148,19.035999298095703 10.357000350952148,19.035999298095703 C10.357000350952148,28.250999450683594 5.178999900817871,34.16999816894531 -5.245999813079834,34.16999816894531 C-7.197999954223633,34.16999816894531 -8.878000259399414,33.96900177001953 -10.829000473022461,33.43000030517578z M-4.103000164031982,-26.702999114990234 C-4.103000164031982,-31.142000198364258 -1.4119999408721924,-34.16999816894531 3.364000082015991,-34.16999816894531 C8.138999938964844,-34.16999816894531 10.829000473022461,-31.142000198364258 10.829000473022461,-26.702999114990234 C10.829000473022461,-22.19700050354004 8.138999938964844,-19.170000076293945 3.364000082015991,-19.170000076293945 C-1.4119999408721924,-19.170000076293945 -4.103000164031982,-22.19700050354004 -4.103000164031982,-26.702999114990234z"></path></g><g opacity="1" transform="matrix(1,0,0,1,88.38899993896484,34.2859992980957)"><path fill="rgb(245,220,230)" fill-opacity="1" d=" M20.68400001525879,16.007999420166016 C20.68400001525879,16.007999420166016 20.68400001525879,17.084999084472656 20.68400001525879,17.084999084472656 C20.68400001525879,17.084999084472656 3.867000102996826,17.084999084472656 3.867000102996826,17.084999084472656 C3.867000102996826,17.084999084472656 3.867000102996826,11.906000137329102 3.867000102996826,11.906000137329102 C-0.5730000138282776,15.135000228881836 -4.4070000648498535,17.825000762939453 -8.17199993133545,17.825000762939453 C-14.22599983215332,17.825000762939453 -16.850000381469727,14.32699966430664 -16.850000381469727,6.322999954223633 C-16.850000381469727,6.322999954223633 -16.850000381469727,-8.137999534606934 -16.850000381469727,-8.137999534606934 C-16.850000381469727,-8.137999534606934 -20.68400001525879,-11.4350004196167 -20.68400001525879,-11.4350004196167 C-20.68400001525879,-11.4350004196167 -3.3959999084472656,-17.48900032043457 -3.3959999084472656,-17.48900032043457 C-3.3959999084472656,-17.48900032043457 -3.3959999084472656,3.632999897003174 -3.3959999084472656,3.632999897003174 C-3.3959999084472656,9.281999588012695 -2.927000045776367,11.501999855041504 0.43799999356269836,11.501999855041504 C1.5119999647140503,11.501999855041504 2.7239999771118164,11.232999801635742 3.867000102996826,10.829999923706055 C3.867000102996826,10.829999923706055 3.867000102996826,-8.473999977111816 3.867000102996826,-8.473999977111816 C3.867000102996826,-8.473999977111816 0.032999999821186066,-11.770999908447266 0.032999999821186066,-11.770999908447266 C0.032999999821186066,-11.770999908447266 17.319000244140625,-17.825000762939453 17.319000244140625,-17.825000762939453 C17.319000244140625,-17.825000762939453 17.319000244140625,16.007999420166016 17.319000244140625,16.007999420166016 C17.319000244140625,16.007999420166016 20.68400001525879,16.007999420166016 20.68400001525879,16.007999420166016z"></path></g><g opacity="1" transform="matrix(1,0,0,1,126.01499938964844,34.08399963378906)"><path fill="rgb(245,220,230)" fill-opacity="1" d=" M14.932000160217285,-16.881999969482422 C14.932000160217285,-16.881999969482422 14.932000160217285,0.9399999976158142 14.932000160217285,0.9399999976158142 C14.932000160217285,0.9399999976158142 14.864999771118164,0.9399999976158142 14.864999771118164,0.9399999976158142 C7.86899995803833,-6.793000221252441 4.708000183105469,-8.541999816894531 2.3540000915527344,-8.137999534606934 C2.3540000915527344,-8.137999534606934 2.3540000915527344,16.209999084472656 2.3540000915527344,16.209999084472656 C2.3540000915527344,16.209999084472656 7.39900016784668,16.209999084472656 7.39900016784668,16.209999084472656 C7.39900016784668,16.209999084472656 7.39900016784668,17.28700065612793 7.39900016784668,17.28700065612793 C7.39900016784668,17.28700065612793 -14.461999893188477,17.28700065612793 -14.461999893188477,17.28700065612793 C-14.461999893188477,17.28700065612793 -14.461999893188477,16.209999084472656 -14.461999893188477,16.209999084472656 C-14.461999893188477,16.209999084472656 -11.098999977111816,16.209999084472656 -11.098999977111816,16.209999084472656 C-11.098999977111816,16.209999084472656 -11.098999977111816,-8.206000328063965 -11.098999977111816,-8.206000328063965 C-11.098999977111816,-8.206000328063965 -14.932000160217285,-11.503000259399414 -14.932000160217285,-11.503000259399414 C-14.932000160217285,-11.503000259399414 2.3540000915527344,-17.28700065612793 2.3540000915527344,-17.28700065612793 C2.3540000915527344,-17.28700065612793 2.3540000915527344,-8.878000259399414 2.3540000915527344,-8.878000259399414 C6.190000057220459,-13.923999786376953 10.5600004196167,-17.084999084472656 13.654000282287598,-17.084999084472656 C14.12399959564209,-17.084999084472656 14.529999732971191,-17.017000198364258 14.932000160217285,-16.881999969482422z"></path></g><g opacity="1" transform="matrix(1,0,0,1,164.58700561523438,33.882999420166016)"><path fill="rgb(245,220,230)" fill-opacity="1" d=" M21.08799934387207,16.410999298095703 C21.08799934387207,16.410999298095703 21.08799934387207,17.488000869750977 21.08799934387207,17.488000869750977 C21.08799934387207,17.488000869750977 1.5789999961853027,17.488000869750977 1.5789999961853027,17.488000869750977 C1.5789999961853027,17.488000869750977 1.5789999961853027,16.410999298095703 1.5789999961853027,16.410999298095703 C1.5789999961853027,16.410999298095703 4.270999908447266,16.410999298095703 4.270999908447266,16.410999298095703 C4.270999908447266,16.410999298095703 4.270999908447266,-3.8350000381469727 4.270999908447266,-3.8350000381469727 C4.270999908447266,-9.081999778747559 2.992000102996826,-10.829999923706055 0.23399999737739563,-10.829999923706055 C-1.1119999885559082,-10.829999923706055 -2.4549999237060547,-10.425999641418457 -3.802000045776367,-9.819999694824219 C-3.802000045776367,-9.819999694824219 -3.802000045776367,16.410999298095703 -3.802000045776367,16.410999298095703 C-3.802000045776367,16.410999298095703 -1.1119999885559082,16.410999298095703 -1.1119999885559082,16.410999298095703 C-1.1119999885559082,16.410999298095703 -1.1119999885559082,17.488000869750977 -1.1119999885559082,17.488000869750977 C-1.1119999885559082,17.488000869750977 -20.617000579833984,17.488000869750977 -20.617000579833984,17.488000869750977 C-20.617000579833984,17.488000869750977 -20.617000579833984,16.410999298095703 -20.617000579833984,16.410999298095703 C-20.617000579833984,16.410999298095703 -17.2549991607666,16.410999298095703 -17.2549991607666,16.410999298095703 C-17.2549991607666,16.410999298095703 -17.2549991607666,-8.140000343322754 -17.2549991607666,-8.140000343322754 C-17.2549991607666,-8.140000343322754 -21.08799934387207,-11.4350004196167 -21.08799934387207,-11.4350004196167 C-21.08799934387207,-11.4350004196167 -3.802000045776367,-17.488000869750977 -3.802000045776367,-17.488000869750977 C-3.802000045776367,-17.488000869750977 -3.802000045776367,-10.76200008392334 -3.802000045776367,-10.76200008392334 C0.5709999799728394,-14.529000282287598 4.4720001220703125,-17.152000427246094 9.04699993133545,-17.152000427246094 C14.763999938964844,-17.152000427246094 17.722000122070312,-13.588000297546387 17.722000122070312,-6.7270002365112305 C17.722000122070312,-6.7270002365112305 17.722000122070312,16.410999298095703 17.722000122070312,16.410999298095703 C17.722000122070312,16.410999298095703 21.08799934387207,16.410999298095703 21.08799934387207,16.410999298095703z"></path></g><g opacity="1" transform="matrix(1,0,0,1,205.1739959716797,34.55500030517578)"><path fill="rgb(245,220,230)" fill-opacity="1" d=" M17.28700065612793,15.73799991607666 C17.28700065612793,15.73799991607666 17.28700065612793,16.815000534057617 17.28700065612793,16.815000534057617 C17.28700065612793,16.815000534057617 0.47200000286102295,16.815000534057617 0.47200000286102295,16.815000534057617 C0.47200000286102295,16.815000534057617 0.47200000286102295,12.980999946594238 0.47200000286102295,12.980999946594238 C-2.688999891281128,15.67199993133545 -6.254000186920166,17.488000869750977 -9.954999923706055,17.488000869750977 C-14.326000213623047,17.488000869750977 -17.28700065612793,15 -17.28700065612793,10.76200008392334 C-17.28700065612793,4.572999954223633 -10.692999839782715,0.4690000116825104 0.47200000286102295,-0.7400000095367432 C0.47200000286102295,-8.140999794006348 -2.48799991607666,-11.84000015258789 -7.599999904632568,-11.84000015258789 C-10.626999855041504,-11.84000015258789 -12.711999893188477,-11.031999588012695 -14.998000144958496,-9.282999992370605 C-14.998000144958496,-9.282999992370605 -15.335000038146973,-9.619999885559082 -15.335000038146973,-9.619999885559082 C-10.76099967956543,-14.732000350952148 -5.784999847412109,-17.488000869750977 0.9440000057220459,-17.488000869750977 C9.418000221252441,-17.488000869750977 13.923999786376953,-12.647000312805176 13.923999786376953,-2.8940000534057617 C13.923999786376953,-2.8940000534057617 13.923999786376953,15.73799991607666 13.923999786376953,15.73799991607666 C13.923999786376953,15.73799991607666 17.28700065612793,15.73799991607666 17.28700065612793,15.73799991607666z M0.47200000286102295,12.038999557495117 C0.47200000286102295,12.038999557495117 0.47200000286102295,0.13300000131130219 0.47200000286102295,0.13300000131130219 C-3.565000057220459,1.277999997138977 -5.110000133514404,3.8340001106262207 -5.110000133514404,7.3979997634887695 C-5.110000133514404,10.5600004196167 -3.7660000324249268,12.239999771118164 -1.0750000476837158,12.239999771118164 C-0.6710000038146973,12.239999771118164 -0.13300000131130219,12.173999786376953 0.47200000286102295,12.038999557495117z"></path></g><g opacity="1" transform="matrix(1,0,0,1,234.7989959716797,26.148000717163086)"><path fill="rgb(245,220,230)" fill-opacity="1" d=" M-9.854000091552734,24.145999908447266 C-9.854000091552734,24.145999908447266 -6.492000102996826,24.145999908447266 -6.492000102996826,24.145999908447266 C-6.492000102996826,24.145999908447266 -6.492000102996826,-15.875 -6.492000102996826,-15.875 C-6.492000102996826,-15.875 -10.326000213623047,-19.16900062561035 -10.326000213623047,-19.16900062561035 C-10.326000213623047,-19.16900062561035 6.960000038146973,-25.222999572753906 6.960000038146973,-25.222999572753906 C6.960000038146973,-25.222999572753906 6.960000038146973,24.145999908447266 6.960000038146973,24.145999908447266 C6.960000038146973,24.145999908447266 10.326000213623047,24.145999908447266 10.326000213623047,24.145999908447266 C10.326000213623047,24.145999908447266 10.326000213623047,25.222999572753906 10.326000213623047,25.222999572753906 C10.326000213623047,25.222999572753906 -9.854000091552734,25.222999572753906 -9.854000091552734,25.222999572753906 C-9.854000091552734,25.222999572753906 -9.854000091552734,24.145999908447266 -9.854000091552734,24.145999908447266z"></path></g><g opacity="1" transform="matrix(1,0,0,1,257.4620056152344,25.81100082397461)"><path fill="rgb(245,220,230)" fill-opacity="1" d=" M-9.854999542236328,24.483999252319336 C-9.854999542236328,24.483999252319336 -6.492000102996826,24.483999252319336 -6.492000102996826,24.483999252319336 C-6.492000102996826,24.483999252319336 -6.492000102996826,-0.06800000369548798 -6.492000102996826,-0.06800000369548798 C-6.492000102996826,-0.06800000369548798 -10.326000213623047,-3.36299991607666 -10.326000213623047,-3.36299991607666 C-10.326000213623047,-3.36299991607666 6.959000110626221,-9.416000366210938 6.959000110626221,-9.416000366210938 C6.959000110626221,-9.416000366210938 6.959000110626221,24.483999252319336 6.959000110626221,24.483999252319336 C6.959000110626221,24.483999252319336 10.326000213623047,24.483999252319336 10.326000213623047,24.483999252319336 C10.326000213623047,24.483999252319336 10.326000213623047,25.56100082397461 10.326000213623047,25.56100082397461 C10.326000213623047,25.56100082397461 -9.854999542236328,25.56100082397461 -9.854999542236328,25.56100082397461 C-9.854999542236328,25.56100082397461 -9.854999542236328,24.483999252319336 -9.854999542236328,24.483999252319336z M-7.23199987411499,-18.0939998626709 C-7.23199987411499,-22.533000946044922 -4.541999816894531,-25.56100082397461 0.23399999737739563,-25.56100082397461 C5.008999824523926,-25.56100082397461 7.701000213623047,-22.533000946044922 7.701000213623047,-18.0939998626709 C7.701000213623047,-13.588000297546387 5.008999824523926,-10.560999870300293 0.23399999737739563,-10.560999870300293 C-4.541999816894531,-10.560999870300293 -7.23199987411499,-13.588000297546387 -7.23199987411499,-18.0939998626709z"></path></g><g opacity="1" transform="matrix(1,0,0,1,284.5,34.55500030517578)"><path fill="rgb(245,220,230)" fill-opacity="1" d=" M-13.821999549865723,15.73900032043457 C-13.821999549865723,15.73900032043457 -11.737000465393066,4.775000095367432 -11.737000465393066,4.775000095367432 C-11.737000465393066,4.775000095367432 -11.67199993133545,4.775000095367432 -11.67199993133545,4.775000095367432 C-11.67199993133545,4.775000095367432 -3.3310000896453857,15.942000389099121 -3.3310000896453857,15.942000389099121 C-2.3889999389648438,16.209999084472656 -1.9190000295639038,16.277999877929688 -1.1109999418258667,16.277999877929688 C1.8489999771118164,16.277999877929688 3.865999937057495,14.730999946594238 3.865999937057495,11.972999572753906 C3.865999937057495,9.954999923706055 2.6570000648498535,8.812000274658203 -0.16899999976158142,7.333000183105469 C-0.16899999976158142,7.333000183105469 -4.607999801635742,4.978000164031982 -4.607999801635742,4.978000164031982 C-10.190999984741211,2.0169999599456787 -12.883000373840332,-1.1440000534057617 -12.883000373840332,-6.25600004196167 C-12.883000373840332,-13.04800033569336 -7.364999771118164,-17.488000869750977 1.5800000429153442,-17.488000869750977 C5.953000068664551,-17.488000869750977 9.451000213623047,-16.749000549316406 12.746000289916992,-15.536999702453613 C12.746000289916992,-15.536999702453613 10.121999740600586,-4.908999919891357 10.121999740600586,-4.908999919891357 C10.121999740600586,-4.908999919891357 10.055000305175781,-4.908999919891357 10.055000305175781,-4.908999919891357 C10.055000305175781,-4.908999919891357 2.252000093460083,-16.009000778198242 2.252000093460083,-16.009000778198242 C1.9160000085830688,-16.143999099731445 1.4450000524520874,-16.209999084472656 1.1089999675750732,-16.209999084472656 C-1.850000023841858,-16.209999084472656 -3.3310000896453857,-14.529999732971191 -3.3310000896453857,-12.645999908447266 C-3.3310000896453857,-10.291000366210938 -2.253999948501587,-8.609000205993652 1.715000033378601,-6.52400016784668 C1.715000033378601,-6.52400016784668 6.760000228881836,-3.8350000381469727 6.760000228881836,-3.8350000381469727 C11.401000022888184,-1.3450000286102295 13.821999549865723,2.0169999599456787 13.821999549865723,6.186999797821045 C13.821999549865723,13.182999610900879 6.761000156402588,17.488000869750977 -1.5130000114440918,17.488000869750977 C-4.675000190734863,17.488000869750977 -9.11400032043457,17.152000427246094 -13.821999549865723,15.73900032043457z"></path></g><g opacity="1" transform="matrix(1,0,0,1,314.39300537109375,28.399999618530273)"><path fill="rgb(245,220,230)" fill-opacity="1" d=" M14.730999946594238,16.781999588012695 C12.241999626159668,20.750999450683594 7.801000118255615,23.64299964904785 1.6150000095367432,23.64299964904785 C-6.390999794006348,23.64299964904785 -9.550000190734863,18.93600082397461 -9.550000190734863,10.190999984741211 C-9.550000190734863,10.190999984741211 -9.550000190734863,-8.911999702453613 -9.550000190734863,-8.911999702453613 C-9.550000190734863,-8.911999702453613 -14.730999946594238,-8.911999702453613 -14.730999946594238,-8.911999702453613 C-14.730999946594238,-8.911999702453613 -14.730999946594238,-8.979000091552734 -14.730999946594238,-8.979000091552734 C-14.730999946594238,-8.979000091552734 3.9010000228881836,-23.64299964904785 3.9010000228881836,-23.64299964904785 C3.9010000228881836,-23.64299964904785 3.9010000228881836,-9.98900032043457 3.9010000228881836,-9.98900032043457 C3.9010000228881836,-9.98900032043457 13.383999824523926,-9.98900032043457 13.383999824523926,-9.98900032043457 C13.383999824523926,-9.98900032043457 13.383999824523926,-8.911999702453613 13.383999824523926,-8.911999702453613 C13.383999824523926,-8.911999702453613 3.9010000228881836,-8.911999702453613 3.9010000228881836,-8.911999702453613 C3.9010000228881836,-8.911999702453613 3.9010000228881836,6.761000156402588 3.9010000228881836,6.761000156402588 C3.9010000228881836,14.562000274658203 5.716000080108643,17.454999923706055 10.694999694824219,17.454999923706055 C12.173999786376953,17.454999923706055 13.317999839782715,17.253999710083008 14.661999702453613,16.716999053955078 C14.661999702453613,16.716999053955078 14.730999946594238,16.781999588012695 14.730999946594238,16.781999588012695z"></path></g><g opacity="1" transform="matrix(1,0,0,1,383.56298828125,33.882999420166016)"><path fill="rgb(245,220,230)" fill-opacity="1" d=" M21.08799934387207,16.410999298095703 C21.08799934387207,16.410999298095703 21.08799934387207,17.488000869750977 21.08799934387207,17.488000869750977 C21.08799934387207,17.488000869750977 1.5789999961853027,17.488000869750977 1.5789999961853027,17.488000869750977 C1.5789999961853027,17.488000869750977 1.5789999961853027,16.410999298095703 1.5789999961853027,16.410999298095703 C1.5789999961853027,16.410999298095703 4.270999908447266,16.410999298095703 4.270999908447266,16.410999298095703 C4.270999908447266,16.410999298095703 4.270999908447266,-3.8350000381469727 4.270999908447266,-3.8350000381469727 C4.270999908447266,-9.081999778747559 2.992000102996826,-10.829999923706055 0.23399999737739563,-10.829999923706055 C-1.1119999885559082,-10.829999923706055 -2.4549999237060547,-10.425999641418457 -3.802000045776367,-9.819999694824219 C-3.802000045776367,-9.819999694824219 -3.802000045776367,16.410999298095703 -3.802000045776367,16.410999298095703 C-3.802000045776367,16.410999298095703 -1.1119999885559082,16.410999298095703 -1.1119999885559082,16.410999298095703 C-1.1119999885559082,16.410999298095703 -1.1119999885559082,17.488000869750977 -1.1119999885559082,17.488000869750977 C-1.1119999885559082,17.488000869750977 -20.617000579833984,17.488000869750977 -20.617000579833984,17.488000869750977 C-20.617000579833984,17.488000869750977 -20.617000579833984,16.410999298095703 -20.617000579833984,16.410999298095703 C-20.617000579833984,16.410999298095703 -17.2549991607666,16.410999298095703 -17.2549991607666,16.410999298095703 C-17.2549991607666,16.410999298095703 -17.2549991607666,-8.140000343322754 -17.2549991607666,-8.140000343322754 C-17.2549991607666,-8.140000343322754 -21.08799934387207,-11.4350004196167 -21.08799934387207,-11.4350004196167 C-21.08799934387207,-11.4350004196167 -3.802000045776367,-17.488000869750977 -3.802000045776367,-17.488000869750977 C-3.802000045776367,-17.488000869750977 -3.802000045776367,-10.76200008392334 -3.802000045776367,-10.76200008392334 C0.5709999799728394,-14.529000282287598 4.4720001220703125,-17.152000427246094 9.04699993133545,-17.152000427246094 C14.763999938964844,-17.152000427246094 17.722000122070312,-13.588000297546387 17.722000122070312,-6.7270002365112305 C17.722000122070312,-6.7270002365112305 17.722000122070312,16.410999298095703 17.722000122070312,16.410999298095703 C17.722000122070312,16.410999298095703 21.08799934387207,16.410999298095703 21.08799934387207,16.410999298095703z"></path></g></g><g style="display: block;" transform="matrix(0.7900000214576721,0,0,0.7900000214576721,583.62158203125,278.3414611816406)" opacity="1"><g opacity="1" transform="matrix(1,0,0,1,20.26099967956543,34.72100067138672)"><path fill="rgb(245,220,230)" fill-opacity="1" d=" M20.01099967956543,-16.983999252319336 C20.01099967956543,-16.983999252319336 15.505000114440918,-13.687000274658203 15.505000114440918,-13.687000274658203 C15.505000114440918,-13.687000274658203 0.5049999952316284,16.983999252319336 0.5049999952316284,16.983999252319336 C0.5049999952316284,16.983999252319336 -1.24399995803833,16.983999252319336 -1.24399995803833,16.983999252319336 C-1.24399995803833,16.983999252319336 -15.505000114440918,-13.687000274658203 -15.505000114440918,-13.687000274658203 C-15.505000114440918,-13.687000274658203 -20.01099967956543,-16.983999252319336 -20.01099967956543,-16.983999252319336 C-20.01099967956543,-16.983999252319336 3.4639999866485596,-16.983999252319336 3.4639999866485596,-16.983999252319336 C3.4639999866485596,-16.983999252319336 -1.0429999828338623,-13.687000274658203 -1.0429999828338623,-13.687000274658203 C-1.0429999828338623,-13.687000274658203 5.548999786376953,4.406000137329102 5.548999786376953,4.406000137329102 C5.548999786376953,4.406000137329102 12.074000358581543,-13.687000274658203 12.074000358581543,-13.687000274658203 C12.074000358581543,-13.687000274658203 7.364999771118164,-16.983999252319336 7.364999771118164,-16.983999252319336 C7.364999771118164,-16.983999252319336 20.01099967956543,-16.983999252319336 20.01099967956543,-16.983999252319336z"></path></g><g opacity="1" transform="matrix(1,0,0,1,54.18899917602539,33.88100051879883)"><path fill="rgb(245,220,230)" fill-opacity="1" d=" M17.285999298095703,15.73900032043457 C17.285999298095703,15.73900032043457 17.285999298095703,16.815000534057617 17.285999298095703,16.815000534057617 C17.285999298095703,16.815000534057617 0.4729999899864197,16.815000534057617 0.4729999899864197,16.815000534057617 C0.4729999899864197,16.815000534057617 0.4729999899864197,12.982000350952148 0.4729999899864197,12.982000350952148 C-2.688999891281128,15.67300033569336 -6.254000186920166,17.488000869750977 -9.954000473022461,17.488000869750977 C-14.326000213623047,17.488000869750977 -17.285999298095703,15.00100040435791 -17.285999298095703,10.76200008392334 C-17.285999298095703,4.572999954223633 -10.692999839782715,0.4699999988079071 0.4729999899864197,-0.7390000224113464 C0.4729999899864197,-8.140000343322754 -2.48799991607666,-11.83899974822998 -7.598999977111816,-11.83899974822998 C-10.626999855041504,-11.83899974822998 -12.713000297546387,-11.031000137329102 -14.99899959564209,-9.282999992370605 C-14.99899959564209,-9.282999992370605 -15.333999633789062,-9.619000434875488 -15.333999633789062,-9.619000434875488 C-10.76099967956543,-14.730999946594238 -5.784999847412109,-17.488000869750977 0.9430000185966492,-17.488000869750977 C9.416999816894531,-17.488000869750977 13.92300033569336,-12.645999908447266 13.92300033569336,-2.8929998874664307 C13.92300033569336,-2.8929998874664307 13.92300033569336,15.73900032043457 13.92300033569336,15.73900032043457 C13.92300033569336,15.73900032043457 17.285999298095703,15.73900032043457 17.285999298095703,15.73900032043457z M0.4729999899864197,12.039999961853027 C0.4729999899864197,12.039999961853027 0.4729999899864197,0.1340000033378601 0.4729999899864197,0.1340000033378601 C-3.563999891281128,1.2790000438690186 -5.110000133514404,3.8350000381469727 -5.110000133514404,7.39900016784668 C-5.110000133514404,10.560999870300293 -3.7660000324249268,12.241000175476074 -1.0759999752044678,12.241000175476074 C-0.671999990940094,12.241000175476074 -0.13300000131130219,12.175000190734863 0.4729999899864197,12.039999961853027z"></path></g><g opacity="1" transform="matrix(1,0,0,1,94.5780029296875,33.20899963378906)"><path fill="rgb(245,220,230)" fill-opacity="1" d=" M21.08799934387207,16.410999298095703 C21.08799934387207,16.410999298095703 21.08799934387207,17.488000869750977 21.08799934387207,17.488000869750977 C21.08799934387207,17.488000869750977 1.5789999961853027,17.488000869750977 1.5789999961853027,17.488000869750977 C1.5789999961853027,17.488000869750977 1.5789999961853027,16.410999298095703 1.5789999961853027,16.410999298095703 C1.5789999961853027,16.410999298095703 4.270999908447266,16.410999298095703 4.270999908447266,16.410999298095703 C4.270999908447266,16.410999298095703 4.270999908447266,-3.8350000381469727 4.270999908447266,-3.8350000381469727 C4.270999908447266,-9.081999778747559 2.992000102996826,-10.829999923706055 0.23499999940395355,-10.829999923706055 C-1.1109999418258667,-10.829999923706055 -2.4560000896453857,-10.425000190734863 -3.802000045776367,-9.819000244140625 C-3.802000045776367,-9.819000244140625 -3.802000045776367,16.410999298095703 -3.802000045776367,16.410999298095703 C-3.802000045776367,16.410999298095703 -1.1109999418258667,16.410999298095703 -1.1109999418258667,16.410999298095703 C-1.1109999418258667,16.410999298095703 -1.1109999418258667,17.488000869750977 -1.1109999418258667,17.488000869750977 C-1.1109999418258667,17.488000869750977 -20.617000579833984,17.488000869750977 -20.617000579833984,17.488000869750977 C-20.617000579833984,17.488000869750977 -20.617000579833984,16.410999298095703 -20.617000579833984,16.410999298095703 C-20.617000579833984,16.410999298095703 -17.253999710083008,16.410999298095703 -17.253999710083008,16.410999298095703 C-17.253999710083008,16.410999298095703 -17.253999710083008,-8.138999938964844 -17.253999710083008,-8.138999938964844 C-17.253999710083008,-8.138999938964844 -21.08799934387207,-11.434000015258789 -21.08799934387207,-11.434000015258789 C-21.08799934387207,-11.434000015258789 -3.802000045776367,-17.488000869750977 -3.802000045776367,-17.488000869750977 C-3.802000045776367,-17.488000869750977 -3.802000045776367,-10.76200008392334 -3.802000045776367,-10.76200008392334 C0.5709999799728394,-14.527999877929688 4.4730000495910645,-17.152000427246094 9.04699993133545,-17.152000427246094 C14.765000343322754,-17.152000427246094 17.722000122070312,-13.588000297546387 17.722000122070312,-6.728000164031982 C17.722000122070312,-6.728000164031982 17.722000122070312,16.410999298095703 17.722000122070312,16.410999298095703 C17.722000122070312,16.410999298095703 21.08799934387207,16.410999298095703 21.08799934387207,16.410999298095703z"></path></g><g opacity="1" transform="matrix(1,0,0,1,195.7270050048828,33.20899963378906)"><path fill="rgb(245,220,230)" fill-opacity="1" d=" M21.08799934387207,16.410999298095703 C21.08799934387207,16.410999298095703 21.08799934387207,17.488000869750977 21.08799934387207,17.488000869750977 C21.08799934387207,17.488000869750977 1.5789999961853027,17.488000869750977 1.5789999961853027,17.488000869750977 C1.5789999961853027,17.488000869750977 1.5789999961853027,16.410999298095703 1.5789999961853027,16.410999298095703 C1.5789999961853027,16.410999298095703 4.270999908447266,16.410999298095703 4.270999908447266,16.410999298095703 C4.270999908447266,16.410999298095703 4.270999908447266,-3.8350000381469727 4.270999908447266,-3.8350000381469727 C4.270999908447266,-9.081999778747559 2.992000102996826,-10.829999923706055 0.23499999940395355,-10.829999923706055 C-1.1109999418258667,-10.829999923706055 -2.4549999237060547,-10.425000190734863 -3.802000045776367,-9.819000244140625 C-3.802000045776367,-9.819000244140625 -3.802000045776367,16.410999298095703 -3.802000045776367,16.410999298095703 C-3.802000045776367,16.410999298095703 -1.1109999418258667,16.410999298095703 -1.1109999418258667,16.410999298095703 C-1.1109999418258667,16.410999298095703 -1.1109999418258667,17.488000869750977 -1.1109999418258667,17.488000869750977 C-1.1109999418258667,17.488000869750977 -20.617000579833984,17.488000869750977 -20.617000579833984,17.488000869750977 C-20.617000579833984,17.488000869750977 -20.617000579833984,16.410999298095703 -20.617000579833984,16.410999298095703 C-20.617000579833984,16.410999298095703 -17.253999710083008,16.410999298095703 -17.253999710083008,16.410999298095703 C-17.253999710083008,16.410999298095703 -17.253999710083008,-8.138999938964844 -17.253999710083008,-8.138999938964844 C-17.253999710083008,-8.138999938964844 -21.08799934387207,-11.434000015258789 -21.08799934387207,-11.434000015258789 C-21.08799934387207,-11.434000015258789 -3.802000045776367,-17.488000869750977 -3.802000045776367,-17.488000869750977 C-3.802000045776367,-17.488000869750977 -3.802000045776367,-10.76200008392334 -3.802000045776367,-10.76200008392334 C0.5720000267028809,-14.527999877929688 4.4730000495910645,-17.152000427246094 9.04699993133545,-17.152000427246094 C14.765000343322754,-17.152000427246094 17.722000122070312,-13.588000297546387 17.722000122070312,-6.728000164031982 C17.722000122070312,-6.728000164031982 17.722000122070312,16.410999298095703 17.722000122070312,16.410999298095703 C17.722000122070312,16.410999298095703 21.08799934387207,16.410999298095703 21.08799934387207,16.410999298095703z"></path></g><g opacity="1" transform="matrix(1,0,0,1,239.94500732421875,25.809999465942383)"><path fill="rgb(245,220,230)" fill-opacity="1" d=" M20.246000289916992,23.809999465942383 C20.246000289916992,23.809999465942383 20.246000289916992,24.88599967956543 20.246000289916992,24.88599967956543 C20.246000289916992,24.88599967956543 3.430000066757202,24.88599967956543 3.430000066757202,24.88599967956543 C3.430000066757202,24.88599967956543 3.430000066757202,19.572999954223633 3.430000066757202,19.572999954223633 C-0.1340000033378601,23.20400047302246 -4.303999900817871,25.559999465942383 -8.27299976348877,25.559999465942383 C-15.133000373840332,25.559999465942383 -20.246000289916992,19.97599983215332 -20.246000289916992,9.616999626159668 C-20.246000289916992,-1.5490000247955322 -13.855999946594238,-9.416999816894531 -4.639999866485596,-9.416999816894531 C-1.0759999752044678,-9.416999816894531 1.3450000286102295,-8.340999603271484 3.430000066757202,-6.929999828338623 C3.430000066757202,-6.929999828338623 3.430000066757202,-16.211000442504883 3.430000066757202,-16.211000442504883 C3.430000066757202,-16.211000442504883 -0.40400001406669617,-19.506999969482422 -0.40400001406669617,-19.506999969482422 C-0.40400001406669617,-19.506999969482422 16.884000778198242,-25.559999465942383 16.884000778198242,-25.559999465942383 C16.884000778198242,-25.559999465942383 16.884000778198242,23.809999465942383 16.884000778198242,23.809999465942383 C16.884000778198242,23.809999465942383 20.246000289916992,23.809999465942383 20.246000289916992,23.809999465942383z M3.430000066757202,18.631000518798828 C3.430000066757202,18.631000518798828 3.430000066757202,-5.783999919891357 3.430000066757202,-5.783999919891357 C2.48799991607666,-6.458000183105469 1.2790000438690186,-6.794000148773193 0.13500000536441803,-6.794000148773193 C-3.361999988555908,-6.794000148773193 -5.8520002365112305,-2.555000066757202 -5.8520002365112305,5.783999919891357 C-5.8520002365112305,14.79800033569336 -3.9019999504089355,19.30500030517578 0.6069999933242798,19.30500030517578 C1.6150000095367432,19.30500030517578 2.48799991607666,19.034000396728516 3.430000066757202,18.631000518798828z"></path></g><g opacity="1" transform="matrix(1,0,0,1,310.3599853515625,33.40999984741211)"><path fill="rgb(245,220,230)" fill-opacity="1" d=" M14.932000160217285,-16.882999420166016 C14.932000160217285,-16.882999420166016 14.932000160217285,0.9409999847412109 14.932000160217285,0.9409999847412109 C14.932000160217285,0.9409999847412109 14.864999771118164,0.9409999847412109 14.864999771118164,0.9409999847412109 C7.86899995803833,-6.793000221252441 4.708000183105469,-8.541000366210938 2.3540000915527344,-8.13700008392334 C2.3540000915527344,-8.13700008392334 2.3540000915527344,16.211000442504883 2.3540000915527344,16.211000442504883 C2.3540000915527344,16.211000442504883 7.39900016784668,16.211000442504883 7.39900016784668,16.211000442504883 C7.39900016784668,16.211000442504883 7.39900016784668,17.285999298095703 7.39900016784668,17.285999298095703 C7.39900016784668,17.285999298095703 -14.461999893188477,17.285999298095703 -14.461999893188477,17.285999298095703 C-14.461999893188477,17.285999298095703 -14.461999893188477,16.211000442504883 -14.461999893188477,16.211000442504883 C-14.461999893188477,16.211000442504883 -11.098999977111816,16.211000442504883 -11.098999977111816,16.211000442504883 C-11.098999977111816,16.211000442504883 -11.098999977111816,-8.206000328063965 -11.098999977111816,-8.206000328063965 C-11.098999977111816,-8.206000328063965 -14.932000160217285,-11.503000259399414 -14.932000160217285,-11.503000259399414 C-14.932000160217285,-11.503000259399414 2.3540000915527344,-17.285999298095703 2.3540000915527344,-17.285999298095703 C2.3540000915527344,-17.285999298095703 2.3540000915527344,-8.878000259399414 2.3540000915527344,-8.878000259399414 C6.190000057220459,-13.92300033569336 10.5600004196167,-17.084999084472656 13.654000282287598,-17.084999084472656 C14.12399959564209,-17.084999084472656 14.529999732971191,-17.01799964904785 14.932000160217285,-16.882999420166016z"></path></g><g opacity="1" transform="matrix(1,0,0,1,344.19000244140625,34.21699905395508)"><path fill="rgb(245,220,230)" fill-opacity="1" d=" M2.624000072479248,-15.402999877929688 C2.624000072479248,-15.402999877929688 1.8830000162124634,-15.402999877929688 1.8830000162124634,-15.402999877929688 C-3.2300000190734863,-15.402999877929688 -8.946000099182129,-10.829000473022461 -14.057999610900879,-0.7400000095367432 C-14.057999610900879,-0.7400000095367432 -14.12399959564209,-0.7400000095367432 -14.12399959564209,-0.7400000095367432 C-14.12399959564209,-0.7400000095367432 -14.12399959564209,-16.479000091552734 -14.12399959564209,-16.479000091552734 C-14.12399959564209,-16.479000091552734 16.951000213623047,-16.479000091552734 16.951000213623047,-16.479000091552734 C16.951000213623047,-16.479000091552734 -2.48799991607666,15.404000282287598 -2.48799991607666,15.404000282287598 C-2.48799991607666,15.404000282287598 -1.4800000190734863,15.404000282287598 -1.4800000190734863,15.404000282287598 C4.64300012588501,15.404000282287598 11.770000457763672,8.878999710083008 15.267999649047852,0.5389999747276306 C15.267999649047852,0.5389999747276306 15.336000442504883,0.5389999747276306 15.336000442504883,0.5389999747276306 C15.336000442504883,0.5389999747276306 15.336000442504883,16.479000091552734 15.336000442504883,16.479000091552734 C15.336000442504883,16.479000091552734 -16.951000213623047,16.479000091552734 -16.951000213623047,16.479000091552734 C-16.951000213623047,16.479000091552734 2.624000072479248,-15.402999877929688 2.624000072479248,-15.402999877929688z"></path></g><g opacity="1" transform="matrix(1,0,0,1,460.5050048828125,25.472999572753906)"><path fill="rgb(245,220,230)" fill-opacity="1" d=" M22.02899932861328,24.14699935913086 C22.02899932861328,24.14699935913086 22.02899932861328,25.222999572753906 22.02899932861328,25.222999572753906 C22.02899932861328,25.222999572753906 5.28000020980835,25.222999572753906 5.28000020980835,25.222999572753906 C5.28000020980835,25.222999572753906 -4.743000030517578,9.552000045776367 -4.743000030517578,9.552000045776367 C-4.743000030517578,9.552000045776367 -4.743000030517578,24.14699935913086 -4.743000030517578,24.14699935913086 C-4.743000030517578,24.14699935913086 -2.7239999771118164,24.14699935913086 -2.7239999771118164,24.14699935913086 C-2.7239999771118164,24.14699935913086 -2.7239999771118164,25.222999572753906 -2.7239999771118164,25.222999572753906 C-2.7239999771118164,25.222999572753906 -21.558000564575195,25.222999572753906 -21.558000564575195,25.222999572753906 C-21.558000564575195,25.222999572753906 -21.558000564575195,24.14699935913086 -21.558000564575195,24.14699935913086 C-21.558000564575195,24.14699935913086 -18.19499969482422,24.14699935913086 -18.19499969482422,24.14699935913086 C-18.19499969482422,24.14699935913086 -18.19499969482422,-15.87399959564209 -18.19499969482422,-15.87399959564209 C-18.19499969482422,-15.87399959564209 -22.02899932861328,-19.16900062561035 -22.02899932861328,-19.16900062561035 C-22.02899932861328,-19.16900062561035 -4.743000030517578,-25.222999572753906 -4.743000030517578,-25.222999572753906 C-4.743000030517578,-25.222999572753906 -4.743000030517578,8.475000381469727 -4.743000030517578,8.475000381469727 C-4.743000030517578,8.475000381469727 0.3709999918937683,4.776000022888184 0.3709999918937683,4.776000022888184 C3.6659998893737793,2.3550000190734863 5.28000020980835,0.7390000224113464 5.28000020980835,-2.2880001068115234 C5.28000020980835,-4.0370001792907715 4.540999889373779,-5.986999988555908 2.38700008392334,-7.061999797821045 C2.38700008392334,-7.061999797821045 2.38700008392334,-7.400000095367432 2.38700008392334,-7.400000095367432 C2.38700008392334,-7.400000095367432 15.840999603271484,-7.400000095367432 15.840999603271484,-7.400000095367432 C16.243999481201172,-6.860000133514404 16.378999710083008,-6.388999938964844 16.378999710083008,-5.7170000076293945 C16.378999710083008,-3.0269999504089355 13.217000007629395,-1.0770000219345093 8.777000427246094,0.8740000128746033 C8.777000427246094,0.8740000128746033 4.675000190734863,2.690999984741211 4.675000190734863,2.690999984741211 C4.675000190734863,2.690999984741211 19.270999908447266,24.14699935913086 19.270999908447266,24.14699935913086 C19.270999908447266,24.14699935913086 22.02899932861328,24.14699935913086 22.02899932861328,24.14699935913086z"></path></g><g opacity="1" transform="matrix(1,0,0,1,498.2359924316406,33.88100051879883)"><path fill="rgb(245,220,230)" fill-opacity="1" d=" M-13.821999549865723,15.73900032043457 C-13.821999549865723,15.73900032043457 -11.737000465393066,4.775000095367432 -11.737000465393066,4.775000095367432 C-11.737000465393066,4.775000095367432 -11.67199993133545,4.775000095367432 -11.67199993133545,4.775000095367432 C-11.67199993133545,4.775000095367432 -3.3310000896453857,15.942000389099121 -3.3310000896453857,15.942000389099121 C-2.3889999389648438,16.209999084472656 -1.9190000295639038,16.277999877929688 -1.1119999885559082,16.277999877929688 C1.8489999771118164,16.277999877929688 3.865999937057495,14.729999542236328 3.865999937057495,11.972999572753906 C3.865999937057495,9.954999923706055 2.6570000648498535,8.812999725341797 -0.16899999976158142,7.334000110626221 C-0.16899999976158142,7.334000110626221 -4.610000133514404,4.978000164031982 -4.610000133514404,4.978000164031982 C-10.192000389099121,2.0169999599456787 -12.883000373840332,-1.1440000534057617 -12.883000373840332,-6.25600004196167 C-12.883000373840332,-13.04800033569336 -7.367000102996826,-17.488000869750977 1.5779999494552612,-17.488000869750977 C5.952000141143799,-17.488000869750977 9.449000358581543,-16.749000549316406 12.744000434875488,-15.538000106811523 C12.744000434875488,-15.538000106811523 10.121999740600586,-4.9079999923706055 10.121999740600586,-4.9079999923706055 C10.121999740600586,-4.9079999923706055 10.055000305175781,-4.9079999923706055 10.055000305175781,-4.9079999923706055 C10.055000305175781,-4.9079999923706055 2.252000093460083,-16.009000778198242 2.252000093460083,-16.009000778198242 C1.9160000085830688,-16.143999099731445 1.444000005722046,-16.209999084472656 1.1080000400543213,-16.209999084472656 C-1.850000023841858,-16.209999084472656 -3.3310000896453857,-14.529000282287598 -3.3310000896453857,-12.645000457763672 C-3.3310000896453857,-10.289999961853027 -2.253999948501587,-8.609000205993652 1.715000033378601,-6.52400016784668 C1.715000033378601,-6.52400016784668 6.758999824523926,-3.8350000381469727 6.758999824523926,-3.8350000381469727 C11.399999618530273,-1.3459999561309814 13.821999549865723,2.0179998874664307 13.821999549865723,6.188000202178955 C13.821999549865723,13.184000015258789 6.760000228881836,17.488000869750977 -1.5130000114440918,17.488000869750977 C-4.676000118255615,17.488000869750977 -9.114999771118164,17.152000427246094 -13.821999549865723,15.73900032043457z"></path></g><g opacity="1" transform="matrix(1,0,0,1,527.2940063476562,35.03300094604492)"><path fill="rgb(245,220,230)" fill-opacity="1" d=" M-7.110000133514404,-0.032999999821186066 C-7.110000133514404,-4.26200008392334 -4.546999931335449,-7.14300012588501 0,-7.14300012588501 C4.548999786376953,-7.14300012588501 7.110000133514404,-4.26200008392334 7.110000133514404,-0.032999999821186066 C7.110000133514404,4.257999897003174 4.548999786376953,7.14300012588501 0,7.14300012588501 C-4.546999931335449,7.14300012588501 -7.110000133514404,4.257999897003174 -7.110000133514404,-0.032999999821186066z"></path></g></g><g style="display: block;" transform="matrix(0.7900000214576721,0,0,0.7900000214576721,653.7025146484375,224.6775360107422)" opacity="1"><g opacity="1" transform="matrix(1,0,0,1,20.260000228881836,35.39500045776367)"><path fill="rgb(245,220,230)" fill-opacity="1" d=" M20.01099967956543,-16.983999252319336 C20.01099967956543,-16.983999252319336 15.503000259399414,-13.687999725341797 15.503000259399414,-13.687999725341797 C15.503000259399414,-13.687999725341797 0.5040000081062317,16.983999252319336 0.5040000081062317,16.983999252319336 C0.5040000081062317,16.983999252319336 -1.24399995803833,16.983999252319336 -1.24399995803833,16.983999252319336 C-1.24399995803833,16.983999252319336 -15.505999565124512,-13.687999725341797 -15.505999565124512,-13.687999725341797 C-15.505999565124512,-13.687999725341797 -20.01099967956543,-16.983999252319336 -20.01099967956543,-16.983999252319336 C-20.01099967956543,-16.983999252319336 3.4619998931884766,-16.983999252319336 3.4619998931884766,-16.983999252319336 C3.4619998931884766,-16.983999252319336 -1.0440000295639038,-13.687999725341797 -1.0440000295639038,-13.687999725341797 C-1.0440000295639038,-13.687999725341797 5.547999858856201,4.40500020980835 5.547999858856201,4.40500020980835 C5.547999858856201,4.40500020980835 12.074000358581543,-13.687999725341797 12.074000358581543,-13.687999725341797 C12.074000358581543,-13.687999725341797 7.363999843597412,-16.983999252319336 7.363999843597412,-16.983999252319336 C7.363999843597412,-16.983999252319336 20.01099967956543,-16.983999252319336 20.01099967956543,-16.983999252319336z"></path></g><g opacity="1" transform="matrix(1,0,0,1,85.52899932861328,34.08399963378906)"><path fill="rgb(245,220,230)" fill-opacity="1" d=" M14.932000160217285,-16.882999420166016 C14.932000160217285,-16.882999420166016 14.932000160217285,0.9409999847412109 14.932000160217285,0.9409999847412109 C14.932000160217285,0.9409999847412109 14.866000175476074,0.9409999847412109 14.866000175476074,0.9409999847412109 C7.869999885559082,-6.793000221252441 4.708000183105469,-8.541999816894531 2.3540000915527344,-8.13700008392334 C2.3540000915527344,-8.13700008392334 2.3540000915527344,16.211000442504883 2.3540000915527344,16.211000442504883 C2.3540000915527344,16.211000442504883 7.400000095367432,16.211000442504883 7.400000095367432,16.211000442504883 C7.400000095367432,16.211000442504883 7.400000095367432,17.285999298095703 7.400000095367432,17.285999298095703 C7.400000095367432,17.285999298095703 -14.461000442504883,17.285999298095703 -14.461000442504883,17.285999298095703 C-14.461000442504883,17.285999298095703 -14.461000442504883,16.211000442504883 -14.461000442504883,16.211000442504883 C-14.461000442504883,16.211000442504883 -11.097999572753906,16.211000442504883 -11.097999572753906,16.211000442504883 C-11.097999572753906,16.211000442504883 -11.097999572753906,-8.206000328063965 -11.097999572753906,-8.206000328063965 C-11.097999572753906,-8.206000328063965 -14.932000160217285,-11.503000259399414 -14.932000160217285,-11.503000259399414 C-14.932000160217285,-11.503000259399414 2.3540000915527344,-17.285999298095703 2.3540000915527344,-17.285999298095703 C2.3540000915527344,-17.285999298095703 2.3540000915527344,-8.878000259399414 2.3540000915527344,-8.878000259399414 C6.190000057220459,-13.92300033569336 10.560999870300293,-17.084999084472656 13.654999732971191,-17.084999084472656 C14.125,-17.084999084472656 14.529999732971191,-17.01799964904785 14.932000160217285,-16.882999420166016z"></path></g><g opacity="1" transform="matrix(1,0,0,1,157.99600219726562,33.882999420166016)"><path fill="rgb(245,220,230)" fill-opacity="1" d=" M21.08799934387207,16.410999298095703 C21.08799934387207,16.410999298095703 21.08799934387207,17.488000869750977 21.08799934387207,17.488000869750977 C21.08799934387207,17.488000869750977 1.5789999961853027,17.488000869750977 1.5789999961853027,17.488000869750977 C1.5789999961853027,17.488000869750977 1.5789999961853027,16.410999298095703 1.5789999961853027,16.410999298095703 C1.5789999961853027,16.410999298095703 4.270999908447266,16.410999298095703 4.270999908447266,16.410999298095703 C4.270999908447266,16.410999298095703 4.270999908447266,-3.8350000381469727 4.270999908447266,-3.8350000381469727 C4.270999908447266,-9.081999778747559 2.992000102996826,-10.829999923706055 0.23499999940395355,-10.829999923706055 C-1.1109999418258667,-10.829999923706055 -2.4560000896453857,-10.425999641418457 -3.802000045776367,-9.819000244140625 C-3.802000045776367,-9.819000244140625 -3.802000045776367,16.410999298095703 -3.802000045776367,16.410999298095703 C-3.802000045776367,16.410999298095703 -1.1109999418258667,16.410999298095703 -1.1109999418258667,16.410999298095703 C-1.1109999418258667,16.410999298095703 -1.1109999418258667,17.488000869750977 -1.1109999418258667,17.488000869750977 C-1.1109999418258667,17.488000869750977 -20.617000579833984,17.488000869750977 -20.617000579833984,17.488000869750977 C-20.617000579833984,17.488000869750977 -20.617000579833984,16.410999298095703 -20.617000579833984,16.410999298095703 C-20.617000579833984,16.410999298095703 -17.253999710083008,16.410999298095703 -17.253999710083008,16.410999298095703 C-17.253999710083008,16.410999298095703 -17.253999710083008,-8.140000343322754 -17.253999710083008,-8.140000343322754 C-17.253999710083008,-8.140000343322754 -21.08799934387207,-11.434000015258789 -21.08799934387207,-11.434000015258789 C-21.08799934387207,-11.434000015258789 -3.802000045776367,-17.488000869750977 -3.802000045776367,-17.488000869750977 C-3.802000045776367,-17.488000869750977 -3.802000045776367,-10.76200008392334 -3.802000045776367,-10.76200008392334 C0.5709999799728394,-14.529000282287598 4.4730000495910645,-17.152000427246094 9.04699993133545,-17.152000427246094 C14.765000343322754,-17.152000427246094 17.722000122070312,-13.588000297546387 17.722000122070312,-6.728000164031982 C17.722000122070312,-6.728000164031982 17.722000122070312,16.410999298095703 17.722000122070312,16.410999298095703 C17.722000122070312,16.410999298095703 21.08799934387207,16.410999298095703 21.08799934387207,16.410999298095703z"></path></g><g opacity="1" transform="matrix(1,0,0,1,191.4199981689453,25.809999465942383)"><path fill="rgb(245,220,230)" fill-opacity="1" d=" M-9.854999542236328,24.483999252319336 C-9.854999542236328,24.483999252319336 -6.492000102996826,24.483999252319336 -6.492000102996826,24.483999252319336 C-6.492000102996826,24.483999252319336 -6.492000102996826,-0.06800000369548798 -6.492000102996826,-0.06800000369548798 C-6.492000102996826,-0.06800000369548798 -10.326000213623047,-3.361999988555908 -10.326000213623047,-3.361999988555908 C-10.326000213623047,-3.361999988555908 6.959000110626221,-9.414999961853027 6.959000110626221,-9.414999961853027 C6.959000110626221,-9.414999961853027 6.959000110626221,24.483999252319336 6.959000110626221,24.483999252319336 C6.959000110626221,24.483999252319336 10.326000213623047,24.483999252319336 10.326000213623047,24.483999252319336 C10.326000213623047,24.483999252319336 10.326000213623047,25.559999465942383 10.326000213623047,25.559999465942383 C10.326000213623047,25.559999465942383 -9.854999542236328,25.559999465942383 -9.854999542236328,25.559999465942383 C-9.854999542236328,25.559999465942383 -9.854999542236328,24.483999252319336 -9.854999542236328,24.483999252319336z M-7.23199987411499,-18.093000411987305 C-7.23199987411499,-22.533000946044922 -4.541999816894531,-25.559999465942383 0.23399999737739563,-25.559999465942383 C5.008999824523926,-25.559999465942383 7.701000213623047,-22.533000946044922 7.701000213623047,-18.093000411987305 C7.701000213623047,-13.586999893188477 5.008999824523926,-10.560999870300293 0.23399999737739563,-10.560999870300293 C-4.541999816894531,-10.560999870300293 -7.23199987411499,-13.586999893188477 -7.23199987411499,-18.093000411987305z"></path></g><g opacity="1" transform="matrix(1,0,0,1,221.65199279785156,41.012001037597656)"><path fill="rgb(245,220,230)" fill-opacity="1" d=" M19.371999740600586,-27.51099967956543 C19.371999740600586,-27.51099967956543 19.371999740600586,-16.47800064086914 19.371999740600586,-16.47800064086914 C19.371999740600586,-16.47800064086914 19.304000854492188,-16.41200065612793 19.304000854492188,-16.41200065612793 C16.143999099731445,-18.29599952697754 11.83899974822998,-20.3799991607666 8.812000274658203,-21.052000045776367 C11.972000122070312,-18.697999954223633 13.654000282287598,-14.99899959564209 13.654000282287598,-10.559000015258789 C13.654000282287598,-2.9600000381469727 8.071000099182129,2.756999969482422 -1.2109999656677246,2.756999969482422 C-4.9770002365112305,2.756999969482422 -8.340999603271484,1.7489999532699585 -10.963000297546387,0 C-11.637999534606934,3.8340001106262207 -9.553000450134277,6.659999847412109 -3.700000047683716,6.659999847412109 C-3.700000047683716,6.659999847412109 4.035999774932861,6.659999847412109 4.035999774932861,6.659999847412109 C11.83899974822998,6.659999847412109 16.075000762939453,9.081000328063965 16.075000762939453,14.934000015258789 C16.075000762939453,22.60099983215332 7.735000133514404,27.577999114990234 -4.640999794006348,27.577999114990234 C-14.529000282287598,27.577999114990234 -19.371999740600586,25.559999465942383 -19.371999740600586,21.323999404907227 C-19.371999740600586,19.30500030517578 -17.757999420166016,17.489999771118164 -14.930999755859375,16.41200065612793 C-16.413000106811523,14.934000015258789 -17.086000442504883,12.914999961853027 -17.086000442504883,10.494000434875488 C-17.086000442504883,6.795000076293945 -15.538000106811523,3.565000057220459 -11.569000244140625,-0.4699999988079071 C-14.595999717712402,-2.75600004196167 -16.413000106811523,-6.255000114440918 -16.413000106811523,-10.628000259399414 C-16.413000106811523,-18.025999069213867 -10.76200008392334,-23.94499969482422 -1.0099999904632568,-23.94499969482422 C2.555000066757202,-23.94499969482422 5.581999778747559,-23.136999130249023 7.936999797821045,-21.659000396728516 C11.569000244140625,-23.608999252319336 15.269000053405762,-25.493000030517578 19.304000854492188,-27.577999114990234 C19.304000854492188,-27.577999114990234 19.371999740600586,-27.51099967956543 19.371999740600586,-27.51099967956543z M-14.529000282287598,16.74799919128418 C-12.914999961853027,23.003999710083008 -7.533999919891357,25.895999908447266 -0.6729999780654907,25.895999908447266 C4.506999969482422,25.895999908447266 8.609000205993652,24.013999938964844 8.609000205993652,21.524999618530273 C8.609000205993652,19.976999282836914 6.6579999923706055,19.170000076293945 1.3459999561309814,19.170000076293945 C1.3459999561309814,19.170000076293945 -5.920000076293945,19.170000076293945 -5.920000076293945,19.170000076293945 C-9.888999938964844,19.170000076293945 -12.711999893188477,18.29599952697754 -14.529000282287598,16.74799919128418z M6.25600004196167,-2.1510000228881836 C6.25600004196167,-4.303999900817871 5.044000148773193,-7.734000205993652 2.2190001010894775,-12.779000282287598 C-1.75,-19.840999603271484 -4.1020002365112305,-22.1299991607666 -6.189000129699707,-22.1299991607666 C-7.599999904632568,-22.1299991607666 -8.810999870300293,-21.052000045776367 -8.810999870300293,-19.16900062561035 C-8.810999870300293,-16.81399917602539 -7.4679999351501465,-13.520000457763672 -4.776000022888184,-8.543000221252441 C-0.8740000128746033,-1.343999981880188 1.6820000410079956,0.8069999814033508 3.697999954223633,0.8069999814033508 C5.245999813079834,0.8069999814033508 6.25600004196167,-0.20100000500679016 6.25600004196167,-2.1510000228881836z"></path></g><g opacity="1" transform="matrix(1,0,0,1,252.48599243164062,25.809999465942383)"><path fill="rgb(245,220,230)" fill-opacity="1" d=" M-9.854000091552734,24.483999252319336 C-9.854000091552734,24.483999252319336 -6.491000175476074,24.483999252319336 -6.491000175476074,24.483999252319336 C-6.491000175476074,24.483999252319336 -6.491000175476074,-0.06800000369548798 -6.491000175476074,-0.06800000369548798 C-6.491000175476074,-0.06800000369548798 -10.326000213623047,-3.361999988555908 -10.326000213623047,-3.361999988555908 C-10.326000213623047,-3.361999988555908 6.960999965667725,-9.414999961853027 6.960999965667725,-9.414999961853027 C6.960999965667725,-9.414999961853027 6.960999965667725,24.483999252319336 6.960999965667725,24.483999252319336 C6.960999965667725,24.483999252319336 10.326000213623047,24.483999252319336 10.326000213623047,24.483999252319336 C10.326000213623047,24.483999252319336 10.326000213623047,25.559999465942383 10.326000213623047,25.559999465942383 C10.326000213623047,25.559999465942383 -9.854000091552734,25.559999465942383 -9.854000091552734,25.559999465942383 C-9.854000091552734,25.559999465942383 -9.854000091552734,24.483999252319336 -9.854000091552734,24.483999252319336z M-7.230999946594238,-18.093000411987305 C-7.230999946594238,-22.533000946044922 -4.540999889373779,-25.559999465942383 0.23499999940395355,-25.559999465942383 C5.011000156402588,-25.559999465942383 7.702000141143799,-22.533000946044922 7.702000141143799,-18.093000411987305 C7.702000141143799,-13.586999893188477 5.011000156402588,-10.560999870300293 0.23499999940395355,-10.560999870300293 C-4.540999889373779,-10.560999870300293 -7.230999946594238,-13.586999893188477 -7.230999946594238,-18.093000411987305z"></path></g><g opacity="1" transform="matrix(1,0,0,1,285.9129943847656,33.882999420166016)"><path fill="rgb(245,220,230)" fill-opacity="1" d=" M21.08799934387207,16.410999298095703 C21.08799934387207,16.410999298095703 21.08799934387207,17.488000869750977 21.08799934387207,17.488000869750977 C21.08799934387207,17.488000869750977 1.5789999961853027,17.488000869750977 1.5789999961853027,17.488000869750977 C1.5789999961853027,17.488000869750977 1.5789999961853027,16.410999298095703 1.5789999961853027,16.410999298095703 C1.5789999961853027,16.410999298095703 4.270999908447266,16.410999298095703 4.270999908447266,16.410999298095703 C4.270999908447266,16.410999298095703 4.270999908447266,-3.8350000381469727 4.270999908447266,-3.8350000381469727 C4.270999908447266,-9.081999778747559 2.992000102996826,-10.829999923706055 0.23499999940395355,-10.829999923706055 C-1.1109999418258667,-10.829999923706055 -2.4560000896453857,-10.425999641418457 -3.802000045776367,-9.819000244140625 C-3.802000045776367,-9.819000244140625 -3.802000045776367,16.410999298095703 -3.802000045776367,16.410999298095703 C-3.802000045776367,16.410999298095703 -1.1109999418258667,16.410999298095703 -1.1109999418258667,16.410999298095703 C-1.1109999418258667,16.410999298095703 -1.1109999418258667,17.488000869750977 -1.1109999418258667,17.488000869750977 C-1.1109999418258667,17.488000869750977 -20.617000579833984,17.488000869750977 -20.617000579833984,17.488000869750977 C-20.617000579833984,17.488000869750977 -20.617000579833984,16.410999298095703 -20.617000579833984,16.410999298095703 C-20.617000579833984,16.410999298095703 -17.253999710083008,16.410999298095703 -17.253999710083008,16.410999298095703 C-17.253999710083008,16.410999298095703 -17.253999710083008,-8.140000343322754 -17.253999710083008,-8.140000343322754 C-17.253999710083008,-8.140000343322754 -21.08799934387207,-11.434000015258789 -21.08799934387207,-11.434000015258789 C-21.08799934387207,-11.434000015258789 -3.802000045776367,-17.488000869750977 -3.802000045776367,-17.488000869750977 C-3.802000045776367,-17.488000869750977 -3.802000045776367,-10.76200008392334 -3.802000045776367,-10.76200008392334 C0.5709999799728394,-14.529000282287598 4.4730000495910645,-17.152000427246094 9.04699993133545,-17.152000427246094 C14.765000343322754,-17.152000427246094 17.722000122070312,-13.588000297546387 17.722000122070312,-6.728000164031982 C17.722000122070312,-6.728000164031982 17.722000122070312,16.410999298095703 17.722000122070312,16.410999298095703 C17.722000122070312,16.410999298095703 21.08799934387207,16.410999298095703 21.08799934387207,16.410999298095703z"></path></g><g opacity="1" transform="matrix(1,0,0,1,326.90399169921875,41.012001037597656)"><path fill="rgb(245,220,230)" fill-opacity="1" d=" M19.371999740600586,-27.51099967956543 C19.371999740600586,-27.51099967956543 19.371999740600586,-16.47800064086914 19.371999740600586,-16.47800064086914 C19.371999740600586,-16.47800064086914 19.30299949645996,-16.41200065612793 19.30299949645996,-16.41200065612793 C16.143999099731445,-18.29599952697754 11.83899974822998,-20.3799991607666 8.812000274658203,-21.052000045776367 C11.972000122070312,-18.697999954223633 13.654000282287598,-14.99899959564209 13.654000282287598,-10.559000015258789 C13.654000282287598,-2.9600000381469727 8.071000099182129,2.756999969482422 -1.2109999656677246,2.756999969482422 C-4.978000164031982,2.756999969482422 -8.340999603271484,1.7489999532699585 -10.96399974822998,0 C-11.637999534606934,3.8340001106262207 -9.553000450134277,6.659999847412109 -3.700000047683716,6.659999847412109 C-3.700000047683716,6.659999847412109 4.035999774932861,6.659999847412109 4.035999774932861,6.659999847412109 C11.83899974822998,6.659999847412109 16.075000762939453,9.081000328063965 16.075000762939453,14.934000015258789 C16.075000762939453,22.60099983215332 7.735000133514404,27.577999114990234 -4.640999794006348,27.577999114990234 C-14.529000282287598,27.577999114990234 -19.371999740600586,25.559999465942383 -19.371999740600586,21.323999404907227 C-19.371999740600586,19.30500030517578 -17.757999420166016,17.489999771118164 -14.932000160217285,16.41200065612793 C-16.413000106811523,14.934000015258789 -17.086000442504883,12.914999961853027 -17.086000442504883,10.494000434875488 C-17.086000442504883,6.795000076293945 -15.538000106811523,3.565000057220459 -11.569000244140625,-0.4699999988079071 C-14.595999717712402,-2.75600004196167 -16.413000106811523,-6.255000114440918 -16.413000106811523,-10.628000259399414 C-16.413000106811523,-18.025999069213867 -10.76200008392334,-23.94499969482422 -1.0099999904632568,-23.94499969482422 C2.555000066757202,-23.94499969482422 5.581999778747559,-23.136999130249023 7.936999797821045,-21.659000396728516 C11.569000244140625,-23.608999252319336 15.267999649047852,-25.493000030517578 19.30299949645996,-27.577999114990234 C19.30299949645996,-27.577999114990234 19.371999740600586,-27.51099967956543 19.371999740600586,-27.51099967956543z M-14.529000282287598,16.74799919128418 C-12.916000366210938,23.003999710083008 -7.533999919891357,25.895999908447266 -0.6729999780654907,25.895999908447266 C4.506999969482422,25.895999908447266 8.609000205993652,24.013999938964844 8.609000205993652,21.524999618530273 C8.609000205993652,19.976999282836914 6.6579999923706055,19.170000076293945 1.3459999561309814,19.170000076293945 C1.3459999561309814,19.170000076293945 -5.920000076293945,19.170000076293945 -5.920000076293945,19.170000076293945 C-9.888999938964844,19.170000076293945 -12.711999893188477,18.29599952697754 -14.529000282287598,16.74799919128418z M6.25600004196167,-2.1510000228881836 C6.25600004196167,-4.303999900817871 5.044000148773193,-7.734000205993652 2.2190001010894775,-12.779000282287598 C-1.75,-19.840999603271484 -4.1020002365112305,-22.1299991607666 -6.189000129699707,-22.1299991607666 C-7.599999904632568,-22.1299991607666 -8.810999870300293,-21.052000045776367 -8.810999870300293,-19.16900062561035 C-8.810999870300293,-16.81399917602539 -7.4679999351501465,-13.520000457763672 -4.776000022888184,-8.543000221252441 C-0.875,-1.343999981880188 1.6820000410079956,0.8069999814033508 3.697999954223633,0.8069999814033508 C5.244999885559082,0.8069999814033508 6.25600004196167,-0.20100000500679016 6.25600004196167,-2.1510000228881836z"></path></g></g><g style="display: block;" transform="matrix(0.7900000214576721,0,0,0.7900000214576721,656.3331909179688,344.22430419921875)" opacity="1"><g opacity="1" transform="matrix(1,0,0,1,19.049999237060547,17.738000869750977)"><path fill="rgb(245,220,230)" fill-opacity="1" d=" M-18.799999237060547,-0.2029999941587448 C-18.799999237060547,-9.821000099182129 -11.267000198364258,-17.488000869750977 -0.3019999861717224,-17.488000869750977 C10.793999671936035,-17.488000869750977 18.799999237060547,-10.76200008392334 18.799999237060547,-0.2029999941587448 C18.799999237060547,9.618000030517578 12.543000221252441,17.488000869750977 -0.23600000143051147,17.488000869750977 C-9.92300033569336,17.488000869750977 -18.799999237060547,10.626999855041504 -18.799999237060547,-0.2029999941587448z M10.055999755859375,11.63700008392334 C10.055999755859375,5.986000061035156 -1.2450000047683716,-15.067000389099121 -7.164000034332275,-15.067000389099121 C-8.845999717712402,-15.067000389099121 -9.854000091552734,-13.855999946594238 -9.854000091552734,-11.770999908447266 C-9.854000091552734,-5.178999900817871 1.7829999923706055,15.067000389099121 7.296000003814697,15.067000389099121 C9.11400032043457,15.067000389099121 10.055999755859375,13.92300033569336 10.055999755859375,11.63700008392334z"></path></g></g><g style="display: block;" transform="matrix(0.7900000214576721,0,0,0.7900000214576721,895.4717407226562,344.22430419921875)" opacity="1"><g opacity="1" transform="matrix(1,0,0,1,15.685999870300293,17.738000869750977)"><path fill="rgb(245,220,230)" fill-opacity="1" d=" M15.435999870300293,10.76200008392334 C12.61299991607666,15.065999984741211 8.104000091552734,17.488000869750977 1.8489999771118164,17.488000869750977 C-7.632999897003174,17.488000869750977 -15.435999870300293,10.897000312805176 -15.435999870300293,0.4690000116825104 C-15.435999870300293,-9.350000381469727 -8.845000267028809,-17.488000869750977 1.9179999828338623,-17.488000869750977 C8.23900032043457,-17.488000869750977 12.61299991607666,-13.788999557495117 12.61299991607666,-8.878000259399414 C12.61299991607666,-3.2950000762939453 8.307000160217285,1.6150000095367432 0.23499999940395355,4.64300012588501 C4.068999767303467,8.406999588012695 8.911999702453613,10.89799976348877 13.420000076293945,10.89799976348877 C14.090999603271484,10.89799976348877 14.763999938964844,10.829000473022461 15.369999885559082,10.696000099182129 C15.369999885559082,10.696000099182129 15.435999870300293,10.76200008392334 15.435999870300293,10.76200008392334z M-7.0960001945495605,-11.164999961853027 C-7.0960001945495605,-5.581999778747559 -4.203999996185303,0.06599999964237213 -0.16699999570846558,4.236000061035156 C1.715000033378601,1.815000057220459 2.4560000896453857,-0.8740000128746033 2.4560000896453857,-4.303999900817871 C2.4560000896453857,-10.156000137329102 -1.4450000524520874,-15.133000373840332 -4.339000225067139,-15.133000373840332 C-6.0879998207092285,-15.133000373840332 -7.0960001945495605,-13.654999732971191 -7.0960001945495605,-11.164999961853027z"></path></g></g><g style="display: block;" transform="matrix(0.7900000214576721,0,0,0.7900000214576721,689.1932373046875,291.09442138671875)" opacity="1"><g opacity="1" transform="matrix(1,0,0,1,19.048999786376953,17.738000869750977)"><path fill="rgb(245,220,230)" fill-opacity="1" d=" M-18.798999786376953,-0.20200000703334808 C-18.798999786376953,-9.819999694824219 -11.265999794006348,-17.488000869750977 -0.3019999861717224,-17.488000869750977 C10.793999671936035,-17.488000869750977 18.798999786376953,-10.76099967956543 18.798999786376953,-0.20200000703334808 C18.798999786376953,9.619000434875488 12.541999816894531,17.488000869750977 -0.2370000034570694,17.488000869750977 C-9.923999786376953,17.488000869750977 -18.798999786376953,10.626999855041504 -18.798999786376953,-0.20200000703334808z M10.055999755859375,11.63700008392334 C10.055999755859375,5.986000061035156 -1.2450000047683716,-15.065999984741211 -7.164000034332275,-15.065999984741211 C-8.845999717712402,-15.065999984741211 -9.854000091552734,-13.854999542236328 -9.854000091552734,-11.770000457763672 C-9.854000091552734,-5.177999973297119 1.7829999923706055,15.067999839782715 7.296999931335449,15.067999839782715 C9.114999771118164,15.067999839782715 10.055999755859375,13.92300033569336 10.055999755859375,11.63700008392334z"></path></g></g><g style="display: block;" transform="matrix(0.7900000214576721,0,0,0.7900000214576721,791.2581176757812,291.09442138671875)" opacity="1"><g opacity="1" transform="matrix(1,0,0,1,15.685999870300293,17.738000869750977)"><path fill="rgb(245,220,230)" fill-opacity="1" d=" M15.435999870300293,10.76200008392334 C12.61299991607666,15.067000389099121 8.104000091552734,17.488000869750977 1.8489999771118164,17.488000869750977 C-7.633999824523926,17.488000869750977 -15.435999870300293,10.897000312805176 -15.435999870300293,0.4699999988079071 C-15.435999870300293,-9.350000381469727 -8.845000267028809,-17.488000869750977 1.9179999828338623,-17.488000869750977 C8.23900032043457,-17.488000869750977 12.61299991607666,-13.788999557495117 12.61299991607666,-8.878000259399414 C12.61299991607666,-3.2960000038146973 8.307000160217285,1.6150000095367432 0.23499999940395355,4.642000198364258 C4.068999767303467,8.406999588012695 8.911999702453613,10.897000312805176 13.420000076293945,10.897000312805176 C14.090999603271484,10.897000312805176 14.763999938964844,10.82800006866455 15.369999885559082,10.694999694824219 C15.369999885559082,10.694999694824219 15.435999870300293,10.76200008392334 15.435999870300293,10.76200008392334z M-7.0960001945495605,-11.166000366210938 C-7.0960001945495605,-5.581999778747559 -4.203999996185303,0.06700000166893005 -0.16699999570846558,4.236999988555908 C1.715000033378601,1.815999984741211 2.4549999237060547,-0.8740000128746033 2.4549999237060547,-4.303999900817871 C2.4549999237060547,-10.156000137329102 -1.4450000524520874,-15.133000373840332 -4.339000225067139,-15.133000373840332 C-6.0879998207092285,-15.133000373840332 -7.0960001945495605,-13.654000282287598 -7.0960001945495605,-11.166000366210938z"></path></g></g><g style="display: block;" transform="matrix(0.7900000214576721,0,0,0.7900000214576721,870.8466796875,291.09442138671875)" opacity="1"><g opacity="1" transform="matrix(1,0,0,1,19.049999237060547,17.738000869750977)"><path fill="rgb(245,220,230)" fill-opacity="1" d=" M-18.799999237060547,-0.20200000703334808 C-18.799999237060547,-9.819999694824219 -11.267000198364258,-17.488000869750977 -0.30300000309944153,-17.488000869750977 C10.793999671936035,-17.488000869750977 18.799999237060547,-10.76099967956543 18.799999237060547,-0.20200000703334808 C18.799999237060547,9.619000434875488 12.543000221252441,17.488000869750977 -0.23600000143051147,17.488000869750977 C-9.92300033569336,17.488000869750977 -18.799999237060547,10.626999855041504 -18.799999237060547,-0.20200000703334808z M10.055999755859375,11.63700008392334 C10.055999755859375,5.986000061035156 -1.2450000047683716,-15.065999984741211 -7.164000034332275,-15.065999984741211 C-8.845999717712402,-15.065999984741211 -9.854000091552734,-13.854999542236328 -9.854000091552734,-11.770000457763672 C-9.854000091552734,-5.177999973297119 1.7829999923706055,15.067999839782715 7.296000003814697,15.067999839782715 C9.11400032043457,15.067999839782715 10.055999755859375,13.92300033569336 10.055999755859375,11.63700008392334z"></path></g></g><g style="display: block;" transform="matrix(0.7900000214576721,0,0,0.7900000214576721,904.266845703125,291.09442138671875)" opacity="1"><g opacity="1" transform="matrix(1,0,0,1,15.685999870300293,17.738000869750977)"><path fill="rgb(245,220,230)" fill-opacity="1" d=" M15.437000274658203,10.76200008392334 C12.61299991607666,15.067000389099121 8.104000091552734,17.488000869750977 1.8489999771118164,17.488000869750977 C-7.633999824523926,17.488000869750977 -15.437000274658203,10.897000312805176 -15.437000274658203,0.4699999988079071 C-15.437000274658203,-9.350000381469727 -8.845999717712402,-17.488000869750977 1.9179999828338623,-17.488000869750977 C8.23900032043457,-17.488000869750977 12.61299991607666,-13.788999557495117 12.61299991607666,-8.878000259399414 C12.61299991607666,-3.2960000038146973 8.307000160217285,1.6150000095367432 0.23499999940395355,4.642000198364258 C4.068999767303467,8.406999588012695 8.911999702453613,10.897000312805176 13.420999526977539,10.897000312805176 C14.092000007629395,10.897000312805176 14.762999534606934,10.82800006866455 15.369999885559082,10.694999694824219 C15.369999885559082,10.694999694824219 15.437000274658203,10.76200008392334 15.437000274658203,10.76200008392334z M-7.0960001945495605,-11.166000366210938 C-7.0960001945495605,-5.581999778747559 -4.203999996185303,0.06700000166893005 -0.16699999570846558,4.236999988555908 C1.715000033378601,1.815999984741211 2.4549999237060547,-0.8740000128746033 2.4549999237060547,-4.303999900817871 C2.4549999237060547,-10.156000137329102 -1.4459999799728394,-15.133000373840332 -4.339000225067139,-15.133000373840332 C-6.0879998207092285,-15.133000373840332 -7.0960001945495605,-13.654000282287598 -7.0960001945495605,-11.166000366210938z"></path></g></g><g style="display: block;" transform="matrix(0.7900000214576721,0,0,0.7900000214576721,683.720947265625,237.9629669189453)" opacity="1"><g opacity="1" transform="matrix(1,0,0,1,15.685999870300293,17.738000869750977)"><path fill="rgb(245,220,230)" fill-opacity="1" d=" M15.437000274658203,10.76200008392334 C12.61299991607666,15.065999984741211 8.104000091552734,17.488000869750977 1.8489999771118164,17.488000869750977 C-7.633999824523926,17.488000869750977 -15.437000274658203,10.895999908447266 -15.437000274658203,0.4699999988079071 C-15.437000274658203,-9.350000381469727 -8.845000267028809,-17.488000869750977 1.9179999828338623,-17.488000869750977 C8.23900032043457,-17.488000869750977 12.612000465393066,-13.788999557495117 12.612000465393066,-8.878999710083008 C12.612000465393066,-3.2960000038146973 8.307000160217285,1.6150000095367432 0.23499999940395355,4.642000198364258 C4.068999767303467,8.406999588012695 8.911999702453613,10.895999908447266 13.420999526977539,10.895999908447266 C14.092000007629395,10.895999908447266 14.762999534606934,10.82800006866455 15.369999885559082,10.694999694824219 C15.369999885559082,10.694999694824219 15.437000274658203,10.76200008392334 15.437000274658203,10.76200008392334z M-7.09499979019165,-11.166999816894531 C-7.09499979019165,-5.581999778747559 -4.203999996185303,0.06700000166893005 -0.16699999570846558,4.236999988555908 C1.715000033378601,1.815999984741211 2.4549999237060547,-0.875 2.4549999237060547,-4.303999900817871 C2.4549999237060547,-10.156000137329102 -1.4459999799728394,-15.133999824523926 -4.339000225067139,-15.133999824523926 C-6.0879998207092285,-15.133999824523926 -7.09499979019165,-13.654000282287598 -7.09499979019165,-11.166999816894531z"></path></g></g><g style="display: block;" transform="matrix(0.7900000214576721,0,0,0.7900000214576721,736.1082153320312,237.9629669189453)" opacity="1"><g opacity="1" transform="matrix(1,0,0,1,15.685999870300293,17.738000869750977)"><path fill="rgb(245,220,230)" fill-opacity="1" d=" M15.435999870300293,10.76200008392334 C12.61299991607666,15.065999984741211 8.104999542236328,17.488000869750977 1.850000023841858,17.488000869750977 C-7.632999897003174,17.488000869750977 -15.435999870300293,10.895999908447266 -15.435999870300293,0.4699999988079071 C-15.435999870300293,-9.350000381469727 -8.845000267028809,-17.488000869750977 1.9190000295639038,-17.488000869750977 C8.239999771118164,-17.488000869750977 12.61299991607666,-13.788999557495117 12.61299991607666,-8.878999710083008 C12.61299991607666,-3.2960000038146973 8.307999610900879,1.6150000095367432 0.23600000143051147,4.642000198364258 C4.070000171661377,8.406999588012695 8.911999702453613,10.895999908447266 13.420999526977539,10.895999908447266 C14.092000007629395,10.895999908447266 14.763999938964844,10.82800006866455 15.369999885559082,10.694999694824219 C15.369999885559082,10.694999694824219 15.435999870300293,10.76200008392334 15.435999870300293,10.76200008392334z M-7.0960001945495605,-11.166999816894531 C-7.0960001945495605,-5.581999778747559 -4.203000068664551,0.06700000166893005 -0.16599999368190765,4.236999988555908 C1.715999960899353,1.815999984741211 2.4560000896453857,-0.875 2.4560000896453857,-4.303999900817871 C2.4560000896453857,-10.156000137329102 -1.4450000524520874,-15.133999824523926 -4.3379998207092285,-15.133999824523926 C-6.086999893188477,-15.133999824523926 -7.0960001945495605,-13.654000282287598 -7.0960001945495605,-11.166999816894531z"></path></g></g><g style="display: block;" transform="matrix(0.7900000214576721,0,0,0.7900000214576721,72.84553527832031,72.65546417236328)" opacity="1"><g opacity="1" transform="matrix(1,0,0,1,294.10699462890625,294.10699462890625)"><path fill="rgb(32,61,141)" fill-opacity="1" d=" M293.85699462890625,0 C293.85699462890625,162.29299926757812 162.29299926757812,293.85699462890625 0.0010000000474974513,293.85699462890625 C-162.29200744628906,293.85699462890625 -293.85699462890625,162.29299926757812 -293.85699462890625,0 C-293.85699462890625,-162.29299926757812 -162.29200744628906,-293.85699462890625 0.0010000000474974513,-293.85699462890625 C162.29299926757812,-293.85699462890625 293.85699462890625,-162.29299926757812 293.85699462890625,0z"></path></g></g><g style="display: block;" transform="matrix(0.7899926900863647,0,0,0.7899926900863647,209.4022216796875,344.15850830078125)" opacity="1"><g opacity="1" transform="matrix(1,0,0,1,61.60599899291992,92.9280014038086)"><path fill="rgb(245,220,230)" fill-opacity="1" d=" M43.71099853515625,-92.6780014038086 C43.71099853515625,-92.6780014038086 23.489999771118164,-92.6780014038086 23.489999771118164,-92.6780014038086 C23.489999771118164,-92.6780014038086 -26.60700035095215,-92.6780014038086 -26.60700035095215,-92.6780014038086 C-26.60700035095215,-92.6780014038086 -26.60700035095215,-58.78499984741211 -26.60700035095215,-58.78499984741211 C-26.60700035095215,-58.78499984741211 23.489999771118164,-58.78499984741211 23.489999771118164,-58.78499984741211 C23.489999771118164,-58.78499984741211 23.489999771118164,32.606998443603516 23.489999771118164,32.606998443603516 C23.489999771118164,48.50199890136719 12.503999710083008,56.44900131225586 -0.5849999785423279,56.44900131225586 C-11.803999900817871,56.44900131225586 -24.65999984741211,50.13800048828125 -24.65999984741211,31.437999725341797 C-24.65999984741211,31.437999725341797 -24.65999984741211,12.505999565124512 -24.65999984741211,12.505999565124512 C-24.65999984741211,12.505999565124512 -61.356998443603516,12.505999565124512 -61.356998443603516,12.505999565124512 C-61.356998443603516,12.505999565124512 -61.356998443603516,33.07500076293945 -61.356998443603516,33.07500076293945 C-61.356998443603516,68.37000274658203 -34.47600173950195,92.6780014038086 0.8180000185966492,92.6780014038086 C36.34700012207031,92.6780014038086 61.356998443603516,70.4729995727539 61.356998443603516,33.07500076293945 C61.356998443603516,33.07500076293945 61.356998443603516,-92.6780014038086 61.356998443603516,-92.6780014038086 C61.356998443603516,-92.6780014038086 43.71099853515625,-92.6780014038086 43.71099853515625,-92.6780014038086z"></path></g></g><g style="display: block;" transform="matrix(0.7900000214576721,0,0,0.7900000214576721,312.49993896484375,191.83802795410156)" opacity="1"><g opacity="1" transform="matrix(1,0,0,1,119.15299987792969,117.00599670410156)"><path fill="rgb(245,220,230)" fill-opacity="1" d=" M0.4950000047683716,-115.98799896240234 C65.21499633789062,-115.2300033569336 118.90299987792969,-58.66899871826172 115.40299987792969,5.960999965667725 C112.01399993896484,68.5459976196289 60.61600112915039,116.75599670410156 -2.0929999351501465,116.75599670410156 C-66.98699951171875,116.75599670410156 -118.90299987792969,65.70600128173828 -118.90299987792969,0.5239999890327454 C-118.90299987792969,-64.8479995727539 -65.05000305175781,-116.75599670410156 0.4950000047683716,-115.98799896240234z M-10.388999938964844,70.9209976196289 C38.547000885009766,77.00199890136719 77.48300170898438,32.025001525878906 65.94999694824219,-17.236000061035156 C59.57400131225586,-44.4739990234375 36.768001556396484,-65.86699676513672 9.090999603271484,-69.93299865722656 C-38.88800048828125,-76.98100280761719 -77.79900360107422,-35.36399841308594 -70.03399658203125,12.425000190734863 C-65.12000274658203,42.66400146484375 -40.79100036621094,67.14299774169922 -10.388999938964844,70.9209976196289z"></path></g></g><g style="display: block;" transform="matrix(0.7900000214576721,0,0,0.7900000214576721,244.82223510742188,135.8997039794922)" opacity="1"><g opacity="1" transform="matrix(1,0,0,1,50.422000885009766,52.35200119018555)"><path fill="rgb(245,220,230)" fill-opacity="1" d=" M-26.881999969482422,-52.10200119018555 C-26.881999969482422,-52.10200119018555 0.1340000033378601,27.08300018310547 0.1340000033378601,27.08300018310547 C0.1340000033378601,27.08300018310547 27.281999588012695,-52.10200119018555 27.281999588012695,-52.10200119018555 C27.281999588012695,-52.10200119018555 50.172000885009766,-52.10200119018555 50.172000885009766,-52.10200119018555 C50.172000885009766,-52.10200119018555 12.376999855041504,52.10200119018555 12.376999855041504,52.10200119018555 C12.376999855041504,52.10200119018555 -12.508999824523926,52.10200119018555 -12.508999824523926,52.10200119018555 C-12.508999824523926,52.10200119018555 -50.172000885009766,-52.10200119018555 -50.172000885009766,-52.10200119018555 C-50.172000885009766,-52.10200119018555 -26.881999969482422,-52.10200119018555 -26.881999969482422,-52.10200119018555z"></path></g></g><g style="display: block;" transform="matrix(0.7900000214576721,0,0,0.7900000214576721,123.51136779785156,215.7576446533203)" opacity="1"><g opacity="1" transform="matrix(1,0,0,1,78.20600128173828,81.2030029296875)"><path fill="rgb(245,220,230)" fill-opacity="1" d=" M-41.76900100708008,-80.9540023803711 C-41.76900100708008,-80.9540023803711 0.2070000022649765,42.08000183105469 0.2070000022649765,42.08000183105469 C0.2070000022649765,42.08000183105469 42.38999938964844,-80.9540023803711 42.38999938964844,-80.9540023803711 C42.38999938964844,-80.9540023803711 77.95600128173828,-80.9540023803711 77.95600128173828,-80.9540023803711 C77.95600128173828,-80.9540023803711 19.229999542236328,80.9540023803711 19.229999542236328,80.9540023803711 C19.229999542236328,80.9540023803711 -19.437000274658203,80.9540023803711 -19.437000274658203,80.9540023803711 C-19.437000274658203,80.9540023803711 -77.95600128173828,-80.9540023803711 -77.95600128173828,-80.9540023803711 C-77.95600128173828,-80.9540023803711 -41.76900100708008,-80.9540023803711 -41.76900100708008,-80.9540023803711z"></path></g></g></g></svg>
