<?xml version="1.0" encoding="UTF-8" standalone="no"?>
<svg
   id="Laag_1"
   data-name="Laag 1"
   viewBox="0 0 462.2 719.28"
   version="1.1"
   xmlns="http://www.w3.org/2000/svg"
   xmlns:svg="http://www.w3.org/2000/svg">
  <defs
     id="defs1339">
    <style
       id="style1337">
      .cls-1 {
        stroke-width: 1.08px;
      }

      .cls-1, .cls-2, .cls-3, .cls-4, .cls-5, .cls-6, .cls-7, .cls-8, .cls-9 {
        fill: none;
        stroke-miterlimit: 10;
      }

      .cls-1, .cls-3, .cls-4, .cls-5, .cls-7, .cls-8, .cls-9 {
        stroke: #412780;
      }

      .cls-2, .cls-3 {
        stroke-width: 1.73px;
      }

      .cls-2, .cls-6 {
        stroke: #fff;
      }

      .cls-10, .cls-11 {
        fill: #fff;
      }

      .cls-4 {
        stroke-width: 1.06px;
      }

      .cls-5, .cls-6 {
        stroke-width: 1.61px;
      }

      .cls-8 {
        stroke-width: 1.22px;
      }

      .cls-11 {
        opacity: .79;
      }

      .cls-9 {
        stroke-width: .99px;
      }
    </style>
  </defs>
  <path
     class="cls-7"
     d="m421.88,230.39c2.46,2.14,5.14,4.72,7.85,7.77,2.75,3.1,5.01,6.11,6.86,8.84"
     id="path1341" />
  <path
     class="cls-7"
     d="m418.19,233.71c2.46,2.14,5.14,4.72,7.85,7.77,2.75,3.1,5.01,6.11,6.86,8.84"
     id="path1343" />
  <path
     class="cls-7"
     d="m413.81,236.58c2.46,2.14,5.14,4.72,7.85,7.77,2.75,3.1,5.01,6.11,6.86,8.84"
     id="path1345" />
  <path
     class="cls-1"
     d="m424.7,227.8c2.61,1.93,5.65,4.52,8.69,7.93,2.47,2.77,4.39,5.47,5.87,7.85"
     id="path1347" />
  <g
     id="g1493">
    <g
       id="g1371">
      <path
         class="cls-10"
         d="m338.18,299.81s6.7-5.16,28.8-2.57c.72.33,1.89.92,3.19,1.84,8.39,5.93,10.11,17,11.28,24.51.5,3.2,1,7.92.74,13.73-4.06.82-8.46,1.89-13.11,3.31-5.56,1.69-10.55,3.6-14.95,5.52.13-.96.29-2.36.37-4.04.13-2.87.28-11.91-4.53-22.8-5.82-13.14-11.77-19.49-11.77-19.49Z"
         id="path1351" />
      <path
         class="cls-10"
         d="m424.62,219.49s10.67,2.65,21.01,22.11c-.35.78-.89,1.91-1.66,3.21-4.15,6.99-9.93,10.47-13.71,12.83-14.38,8.97-23.36,16.53-23.99,15.7-.28-.36,1.62-1.5,2.65-4.31,1.68-4.56-.47-9.23-1.11-10.61-2.58-5.62-7.37-8.44-11.61-10.95-6.22-3.67-11.78-5.01-11.61-5.64.11-.41,2.46-.02,3.87.11,8.9.84,16.67-4.81,21.01-7.96,10.65-7.74,15.15-14.48,15.15-14.48Z"
         id="path1353" />
      <path
         class="cls-11"
         d="m128.33,377.51l21.05,27.59c.68-.01,1.68-.02,2.88,0,2.38.04,10.25.3,23.6,3.99,3.76,1.04,8.61,2.53,14.18,4.65-3.03-3.08-6.21-6.61-9.42-10.64-3.58-4.49-6.58-8.84-9.09-12.85l-4.65-1.33-38.56-11.41Z"
         id="path1355" />
      <path
         class="cls-10"
         d="m152.57,225.42c.66,1.76,1.77,4.47,3.51,7.58,4.44,7.94,9.81,12.88,16.02,18.5,2.78,2.52,6.76,5.92,11.89,9.61l-27.6,22.33c-.38-.57-.97-1.42-1.76-2.38-4.13-5.06-7.86-6.29-11.58-9.1-4.28-3.24-3.25-4.56-9.72-12.3-3.81-4.56-7.3-7.86-9.51-9.82l28.74-24.43Z"
         id="path1357" />
      <path
         class="cls-10"
         d="m232.66,214.29s12.22-2.41,20.93,0c.03.56.05,1.36,0,2.33-.48,10.06-7.05,16.99-8.4,18.37-5.46,5.54-11.61,7.33-13.31,7.78-10.62,2.81-19.38-1.46-21.63-2.65,1.65-.49,4.19-1.36,7.08-2.88,3.84-2.02,12.97-6.82,14.79-15.1.93-4.24.54-7.86.54-7.86Z"
         id="path1359" />
      <path
         class="cls-10"
         d="m279.94,219.32l3.98-4.06c1.62-.89,3.99-2.35,6.49-4.58.87-.78,3.39-3.11,9.08-11.59,1.22-1.82,2.88-4.35,4.76-7.44l-21.88-11.93c.09.64.17,1.57.09,2.68-.15,1.87-.91,5.93-8.91,13.06-2.95,2.63-7.26,6.01-13.06,9.17l19.46,14.7Z"
         id="path1361" />
      <path
         class="cls-10"
         d="m250.74,342.99s6.92-4.67,18.02-11.12c6.92-4.03,13.36-6.28,18.16-7.6-.13-2.57-.24-6.37,0-10.98.44-8.45,1.53-10.04,1.55-14.36.04-10.47-6.34-18.49-8.87-21.68-2.96-3.73-8.04-10.12-16.75-12.11-2.69-.61-5.02-.65-6.62-.56l-37.45,25.76c3.42,1.18,8.09,3.15,13.09,6.48,3.18,2.11,10.27,6.82,14.36,13.65,8.49,14.2,4.5,32.52,4.5,32.52Z"
         id="path1363" />
      <path
         class="cls-10"
         d="m347.42,115.29s15.4,14.55,16.98,67.91c-4.61.8-9.55,1.88-14.74,3.36-12.53,3.58-22.97,8.44-31.23,13.13l-21.62-64.39c2.65-.96,6.94-2.55,12.17-4.64,27.54-11.02,38.44-15.38,38.44-15.38Z"
         id="path1365" />
      <path
         class="cls-10"
         d="m390.64,65.62s-1.02,13.22-26.37,34.99c-2.2-1.93-4.68-3.91-7.44-5.85-6.67-4.69-13.15-7.86-18.68-10.03l22.83-35.87c1.51.91,3.97,2.38,7.05,4.1,16.2,9.07,22.61,12.66,22.61,12.66Z"
         id="path1367" />
      <path
         class="cls-10"
         d="m410.12,75.14s10.76,3.71,28.13,30.78c-1.6,1.54-3.25,3.31-4.87,5.34-3.91,4.91-6.59,9.97-8.44,14.41l-28.89-27.82c.76-1.15,1.99-3.01,3.44-5.37,7.61-12.42,10.63-17.33,10.63-17.33Z"
         id="path1369" />
    </g>
    <path
       class="cls-7"
       d="m409.68,238.7c2.46,2.14,5.14,4.72,7.85,7.77,2.75,3.1,5.01,6.11,6.86,8.84"
       id="path1373" />
    <path
       class="cls-1"
       d="m405.26,240.3c2.3,1.39,6.51,4.36,9.83,9.68,2.84,4.55,3.82,8.87,4.19,11.43"
       id="path1375" />
    <path
       class="cls-1"
       d="m401.91,242.35c3.9,3.24,5.63,4.48,8.7,7.97,1.24,1.41,3.33,5.65,4.1,8.34.71,2.47.5,4.68.23,6.1"
       id="path1377" />
    <path
       class="cls-9"
       d="m352.42,314.41c2.89-1.4,6.26-2.83,10.08-4.11,3.87-1.29,7.47-2.18,10.67-2.8"
       id="path1379" />
    <path
       class="cls-9"
       d="m354.01,319.04c2.89-1.4,6.26-2.83,10.08-4.11,3.87-1.29,7.47-2.18,10.67-2.8"
       id="path1381" />
    <path
       class="cls-9"
       d="m354.91,324.12c2.89-1.4,6.26-2.83,10.08-4.11,3.87-1.29,7.47-2.18,10.67-2.8"
       id="path1383" />
    <path
       class="cls-9"
       d="m355.24,328.68c2.89-1.4,6.26-2.83,10.08-4.11,3.87-1.29,7.47-2.18,10.67-2.8"
       id="path1385" />
    <path
       class="cls-4"
       d="m354.98,333.3c2.15-1.55,6.47-4.21,12.57-5.17,5.23-.82,9.52-.03,11.98.62"
       id="path1387" />
    <path
       class="cls-4"
       d="m355.55,337.14c4.44-2.28,6.23-3.37,10.59-4.81,1.76-.58,6.41-.83,9.14-.49,2.51.31,4.43,1.36,5.61,2.15"
       id="path1389" />
    <path
       class="cls-4"
       d="m351.17,310.86c2.75-1.62,6.28-3.37,10.54-4.81,3.47-1.17,6.66-1.86,9.38-2.28"
       id="path1391" />
    <path
       class="cls-6"
       d="m312.27,148.33c4.75-2.2,10.28-4.44,16.54-6.4,6.35-1.99,12.24-3.34,17.45-4.25"
       id="path1393" />
    <path
       class="cls-6"
       d="m314.72,155.91c4.75-2.2,10.28-4.44,16.54-6.4,6.35-1.99,12.24-3.34,17.45-4.25"
       id="path1395" />
    <path
       class="cls-6"
       d="m316.05,164.21c4.75-2.2,10.28-4.44,16.54-6.4,6.35-1.99,12.24-3.34,17.45-4.25"
       id="path1397" />
    <path
       class="cls-6"
       d="m316.45,171.65c4.75-2.2,10.28-4.44,16.54-6.4,6.35-1.99,12.24-3.34,17.45-4.25"
       id="path1399" />
    <path
       class="cls-2"
       d="m310.33,142.5c4.53-2.55,10.33-5.32,17.31-7.53,5.69-1.8,10.9-2.84,15.35-3.45"
       id="path1401" />
    <path
       class="cls-6"
       d="m318.97,177.69c4.75-2.2,10.28-4.44,16.54-6.4,6.35-1.99,12.24-3.34,17.45-4.25"
       id="path1403" />
    <path
       class="cls-6"
       d="m320.73,185.04c4.75-2.2,10.28-4.44,16.54-6.4,6.35-1.99,12.24-3.34,17.45-4.25"
       id="path1405" />
    <path
       class="cls-8"
       d="m132.98,251.46c2.82-2.82,6.2-5.85,10.16-8.89,4.02-3.08,7.88-5.58,11.37-7.59"
       id="path1407" />
    <path
       class="cls-8"
       d="m134.75,255.19c2.82-2.82,6.2-5.85,10.16-8.89,4.02-3.08,7.88-5.58,11.37-7.59"
       id="path1409" />
    <path
       class="cls-8"
       d="m137.78,258.58c2.82-2.82,6.2-5.85,10.16-8.89,4.02-3.08,7.88-5.58,11.37-7.59"
       id="path1411" />
    <path
       class="cls-8"
       d="m140.92,262.68c2.82-2.82,6.2-5.85,10.16-8.89,4.02-3.08,7.88-5.58,11.37-7.59"
       id="path1413" />
    <path
       class="cls-8"
       d="m145.52,266.08c2.82-2.82,6.2-5.85,10.16-8.89,4.02-3.08,7.88-5.58,11.37-7.59"
       id="path1415" />
    <path
       class="cls-8"
       d="m148.86,270.92c2.82-2.82,6.2-5.85,10.16-8.89,4.02-3.08,7.88-5.58,11.37-7.59"
       id="path1417" />
    <path
       class="cls-8"
       d="m152.44,274.33c2.82-2.82,6.2-5.85,10.16-8.89,4.02-3.08,7.88-5.58,11.37-7.59"
       id="path1419" />
    <path
       class="cls-10"
       d="m223.75,660.24s6.7-5.16,28.8-2.57c.72.33,1.89.92,3.19,1.84,8.39,5.93,10.11,17,11.28,24.51.5,3.2,1,7.92.74,13.73-4.06.82-8.46,1.89-13.11,3.31-5.56,1.69-10.55,3.6-14.95,5.52.13-.96.29-2.36.37-4.04.13-2.87.28-11.91-4.53-22.8-5.82-13.14-11.77-19.49-11.77-19.49Z"
       id="path1423" />
    <path
       class="cls-10"
       d="m310.2,579.92s10.67,2.65,21.01,22.11c-.35.78-.89,1.91-1.66,3.21-4.15,6.99-9.93,10.47-13.71,12.83-14.38,8.97-23.36,16.53-23.99,15.7-.28-.36,1.62-1.5,2.65-4.31,1.68-4.56-.47-9.23-1.11-10.61-2.58-5.62-7.37-8.44-11.61-10.95-6.22-3.67-11.78-5.01-11.61-5.64.11-.41,2.46-.02,3.87.11,8.9.84,16.67-4.81,21.01-7.96,10.65-7.74,15.15-14.48,15.15-14.48Z"
       id="path1425" />
    <path
       class="cls-10"
       d="m38.14,585.85c.66,1.76,1.77,4.47,3.51,7.58,4.44,7.94,9.81,12.88,16.02,18.5,2.78,2.52,6.76,5.92,11.89,9.61l-27.6,22.33c-.38-.57-.97-1.42-1.76-2.38-4.13-5.06-7.86-6.29-11.58-9.1-4.28-3.24-3.25-4.56-9.72-12.3-3.81-4.56-7.3-7.86-9.51-9.82l28.74-24.43Z"
       id="path1427" />
    <path
       class="cls-10"
       d="m118.24,574.72s12.22-2.41,20.93,0c.03.56.05,1.36,0,2.33-.48,10.06-7.05,16.99-8.4,18.37-5.46,5.54-11.61,7.33-13.31,7.78-10.62,2.81-19.38-1.46-21.63-2.65,1.65-.49,4.19-1.36,7.08-2.88,3.84-2.02,12.97-6.82,14.79-15.1.93-4.24.54-7.86.54-7.86Z"
       id="path1429" />
    <path
       class="cls-10"
       d="m165.51,579.75l3.98-4.06c1.62-.89,3.99-2.35,6.49-4.58.87-.78,3.39-3.11,9.08-11.59,1.22-1.82,2.88-4.35,4.76-7.44l-21.88-11.93c.09.64.17,1.57.09,2.68-.15,1.87-.91,5.93-8.91,13.06-2.95,2.63-7.26,6.01-13.06,9.17l19.46,14.7Z"
       id="path1431" />
    <path
       class="cls-10"
       d="m68.78,559.62s8.19-1.64,20.91-3.33c7.94-1.05,14.74-.65,19.69-.03.86-2.42,2.23-5.98,4.23-10.13,3.66-7.63,5.28-8.67,6.95-12.66,4.06-9.65,1.27-19.51.16-23.42-1.3-4.58-3.53-12.43-10.8-17.62-2.25-1.6-4.38-2.53-5.89-3.07l-44.47,9.37c2.7,2.41,6.25,6.02,9.59,11.01,2.12,3.17,6.86,10.25,8,18.13,2.37,16.38-8.35,31.75-8.35,31.75Z"
       id="path1433" />
    <path
       class="cls-10"
       d="m232.99,475.72s15.4,14.55,16.98,67.91c-4.61.8-9.55,1.88-14.74,3.36-12.53,3.58-22.97,8.44-31.23,13.13l-21.62-64.39c2.65-.96,6.94-2.55,12.17-4.64,27.54-11.02,38.44-15.38,38.44-15.38Z"
       id="path1435" />
    <path
       class="cls-10"
       d="m276.22,426.05s-1.02,13.22-26.37,34.99c-2.2-1.93-4.68-3.91-7.44-5.85-6.67-4.69-13.15-7.86-18.68-10.03l22.83-35.87c1.51.91,3.97,2.38,7.05,4.1,16.2,9.07,22.61,12.66,22.61,12.66Z"
       id="path1437" />
    <path
       class="cls-7"
       d="m307.45,590.82c2.46,2.14,5.14,4.72,7.85,7.77,2.75,3.1,5.01,6.11,6.86,8.84"
       id="path1439" />
    <path
       class="cls-7"
       d="m303.77,594.14c2.46,2.14,5.14,4.72,7.85,7.77,2.75,3.1,5.01,6.11,6.86,8.84"
       id="path1441" />
    <path
       class="cls-7"
       d="m299.38,597c2.46,2.14,5.14,4.72,7.85,7.77,2.75,3.1,5.01,6.11,6.86,8.84"
       id="path1443" />
    <path
       class="cls-7"
       d="m295.26,599.12c2.46,2.14,5.14,4.72,7.85,7.77,2.75,3.1,5.01,6.11,6.86,8.84"
       id="path1445" />
    <path
       class="cls-1"
       d="m290.84,600.72c2.3,1.39,6.51,4.36,9.83,9.68,2.84,4.55,3.82,8.87,4.19,11.43"
       id="path1447" />
    <path
       class="cls-1"
       d="m287.48,602.78c3.9,3.24,5.63,4.48,8.7,7.97,1.24,1.41,3.33,5.65,4.1,8.34.71,2.47.5,4.68.23,6.1"
       id="path1449" />
    <path
       class="cls-1"
       d="m310.27,588.22c2.61,1.93,5.65,4.52,8.69,7.93,2.47,2.77,4.39,5.47,5.87,7.85"
       id="path1451" />
    <path
       class="cls-9"
       d="m238,674.84c2.89-1.4,6.26-2.83,10.08-4.11,3.87-1.29,7.47-2.18,10.67-2.8"
       id="path1453" />
    <path
       class="cls-9"
       d="m239.58,679.47c2.89-1.4,6.26-2.83,10.08-4.11,3.87-1.29,7.47-2.18,10.67-2.8"
       id="path1455" />
    <path
       class="cls-9"
       d="m240.49,684.55c2.89-1.4,6.26-2.83,10.08-4.11,3.87-1.29,7.47-2.18,10.67-2.8"
       id="path1457" />
    <path
       class="cls-9"
       d="m240.81,689.11c2.89-1.4,6.26-2.83,10.08-4.11,3.87-1.29,7.47-2.18,10.67-2.8"
       id="path1459" />
    <path
       class="cls-4"
       d="m236.74,671.28c2.75-1.62,6.28-3.37,10.54-4.81,3.47-1.17,6.66-1.86,9.38-2.28"
       id="path1461" />
    <path
       class="cls-5"
       d="m197.85,508.76c4.75-2.2,10.28-4.44,16.54-6.4,6.35-1.99,12.24-3.34,17.45-4.25"
       id="path1463" />
    <path
       class="cls-5"
       d="m200.3,516.33c4.75-2.2,10.28-4.44,16.54-6.4,6.35-1.99,12.24-3.34,17.45-4.25"
       id="path1465" />
    <path
       class="cls-5"
       d="m201.62,524.64c4.75-2.2,10.28-4.44,16.54-6.4,6.35-1.99,12.24-3.34,17.45-4.25"
       id="path1467" />
    <path
       class="cls-5"
       d="m202.02,532.07c4.75-2.2,10.28-4.44,16.54-6.4,6.35-1.99,12.24-3.34,17.45-4.25"
       id="path1469" />
    <path
       class="cls-3"
       d="m195.9,502.92c4.53-2.55,10.33-5.32,17.31-7.53,5.69-1.8,10.9-2.84,15.35-3.45"
       id="path1471" />
    <path
       class="cls-5"
       d="m204.55,538.12c4.75-2.2,10.28-4.44,16.54-6.4,6.35-1.99,12.24-3.34,17.45-4.25"
       id="path1473" />
    <path
       class="cls-5"
       d="m206.3,545.47c4.75-2.2,10.28-4.44,16.54-6.4,6.35-1.99,12.24-3.34,17.45-4.25"
       id="path1475" />
    <path
       class="cls-8"
       d="m18.55,611.89c2.82-2.82,6.2-5.85,10.16-8.89,4.02-3.08,7.88-5.58,11.37-7.59"
       id="path1477" />
    <path
       class="cls-8"
       d="m20.33,615.62c2.82-2.82,6.2-5.85,10.16-8.89,4.02-3.08,7.88-5.58,11.37-7.59"
       id="path1479" />
    <path
       class="cls-8"
       d="m23.35,619.01c2.82-2.82,6.2-5.85,10.16-8.89,4.02-3.08,7.88-5.58,11.37-7.59"
       id="path1481" />
    <path
       class="cls-8"
       d="m26.49,623.1c2.82-2.82,6.2-5.85,10.16-8.89,4.02-3.08,7.88-5.58,11.37-7.59"
       id="path1483" />
    <path
       class="cls-8"
       d="m31.09,626.51c2.82-2.82,6.2-5.85,10.16-8.89,4.02-3.08,7.88-5.58,11.37-7.59"
       id="path1485" />
    <path
       class="cls-8"
       d="m34.44,631.35c2.82-2.82,6.2-5.85,10.16-8.89,4.02-3.08,7.88-5.58,11.37-7.59"
       id="path1487" />
    <path
       class="cls-8"
       d="m38.02,634.75c2.82-2.82,6.2-5.85,10.16-8.89,4.02-3.08,7.88-5.58,11.37-7.59"
       id="path1489" />
    <path
       class="cls-10"
       d="m299.71,411.25s10.76,3.71,28.13,30.78c-1.6,1.54-3.25,3.31-4.87,5.34-3.91,4.91-6.59,9.97-8.44,14.41l-28.89-27.82c.76-1.15,1.99-3.01,3.44-5.37,7.61-12.42,10.63-17.33,10.63-17.33Z"
       id="path1491" />
  </g>
</svg>
